<?xml version="1.0" standalone="no"?>
<!DOCTYPE svg PUBLIC "-//W3C//DTD SVG 20010904//EN"
 "http://www.w3.org/TR/2001/REC-SVG-20010904/DTD/svg10.dtd">
<svg version="1.0" xmlns="http://www.w3.org/2000/svg"
 width="336.000000pt" height="295.000000pt" viewBox="0 0 336.000000 295.000000"
 preserveAspectRatio="xMidYMid meet">

<g transform="translate(0.000000,295.000000) scale(0.100000,-0.100000)"
fill="#000000" stroke="none">
<path d="M1680 2857 c0 -16 34 -67 46 -67 11 0 10 6 -4 32 -15 27 -42 50 -42
35z"/>
<path d="M1738 2849 c-3 -9 -2 -22 2 -30 13 -19 18 -8 10 21 -4 19 -7 21 -12
9z"/>
<path d="M1560 2830 c-11 -7 -5 -9 22 -7 21 1 38 5 38 10 0 10 -42 8 -60 -3z"/>
<path d="M1801 2817 c-5 -14 -18 -27 -28 -30 -14 -4 -13 -5 5 -6 16 -1 25 7
33 25 5 15 7 29 5 32 -3 3 -10 -7 -15 -21z"/>
<path d="M1520 2805 c-6 -8 -10 -19 -8 -24 1 -6 8 1 15 14 13 28 11 31 -7 10z"/>
<path d="M1878 2813 c7 -3 16 -2 19 1 4 3 -2 6 -13 5 -11 0 -14 -3 -6 -6z"/>
<path d="M1562 2794 c-22 -15 -30 -44 -13 -44 5 0 15 10 24 23 23 34 32 13 17
-47 -12 -50 -11 -55 10 -84 14 -19 41 -37 68 -47 54 -18 55 -18 47 -5 -3 6 2
10 13 10 30 0 98 36 81 44 -8 3 -3 3 9 0 17 -4 30 1 43 15 20 21 20 21 -1 21
-11 0 -20 7 -20 16 0 10 8 15 23 14 40 -4 47 0 47 25 0 28 27 35 36 10 8 -19
34 -20 34 -1 0 39 -59 59 -101 34 -17 -11 -22 -10 -35 6 -18 26 -32 11 -15
-16 15 -24 5 -34 -45 -44 -33 -6 -114 27 -114 46 0 14 12 12 38 -5 20 -14 21
-14 16 0 -4 8 -24 18 -45 21 -22 4 -42 11 -45 15 -8 14 -48 10 -72 -7z m84
-39 c-3 -8 3 -19 12 -25 15 -8 15 -11 2 -20 -13 -8 -11 -11 8 -16 18 -5 20 -9
11 -20 -6 -8 -17 -14 -23 -14 -7 0 -6 4 2 9 11 6 10 10 -3 15 -10 4 -15 12
-11 21 3 9 -3 23 -14 32 -26 22 -25 33 1 33 15 0 19 -5 15 -15z m241 -37 c-3
-7 -5 -2 -5 12 0 14 2 19 5 13 2 -7 2 -19 0 -25z m-180 -64 c-3 -3 -12 -4 -19
-1 -8 3 -5 6 6 6 11 1 17 -2 13 -5z m13 -30 c10 -11 5 -12 -27 -7 -55 8 -75
30 -23 25 21 -2 44 -10 50 -18z"/>
<path d="M1982 2781 c22 -25 25 -36 18 -55 -6 -17 -5 -29 5 -42 14 -18 14 -18
15 0 0 17 2 18 18 4 9 -8 25 -18 35 -21 9 -4 17 -13 17 -22 0 -8 4 -15 9 -15
13 0 22 16 14 24 -4 4 -8 12 -9 19 -5 28 -24 67 -34 67 -6 0 -6 -9 1 -26 5
-15 7 -30 3 -33 -8 -8 -44 38 -56 71 -5 15 -21 35 -36 44 l-27 18 27 -33z"/>
<path d="M1455 2760 c-3 -11 -16 -25 -28 -31 -12 -6 -30 -18 -40 -27 -17 -15
-67 -26 -67 -15 0 4 8 15 18 26 15 17 13 17 -26 -3 -49 -26 -100 -22 -133 11
-19 19 -19 19 -19 -11 0 -16 5 -30 12 -30 6 0 8 -3 5 -7 -4 -3 -69 -7 -145 -7
-114 -1 -143 -4 -165 -19 -60 -39 -74 -107 -21 -107 29 0 32 16 4 25 -11 3
-20 10 -20 15 0 14 31 20 52 9 15 -8 24 -7 37 5 11 10 26 14 37 10 14 -4 15
-3 6 4 -10 7 -2 11 30 17 l43 9 -55 6 c-69 8 -44 11 147 14 101 2 150 -1 146
-7 -4 -6 1 -8 11 -4 10 4 19 7 22 7 2 0 1 7 -3 16 -5 14 -3 14 14 3 17 -10 30
-9 74 5 60 18 68 23 89 50 14 18 13 19 -4 13 -16 -6 -17 -4 -12 18 8 30 0 34
-9 5z"/>
<path d="M1180 2752 c0 -14 23 -32 42 -32 12 0 18 7 18 23 0 16 -3 18 -9 8 -7
-10 -13 -11 -30 -2 -11 7 -21 8 -21 3z"/>
<path d="M1506 2745 c-3 -10 -3 -22 3 -28 12 -12 20 4 11 27 -6 19 -7 19 -14
1z"/>
<path d="M2253 2697 c-3 -5 -1 -13 5 -19 10 -10 52 6 52 20 0 10 -51 9 -57 -1z"/>
<path d="M2129 2650 c26 -22 51 -26 68 -9 9 9 10 7 6 -10 -4 -15 -1 -21 11
-21 9 0 16 4 16 9 0 5 17 3 38 -5 21 -7 79 -16 128 -19 138 -11 171 -22 165
-57 0 -4 11 -3 25 2 29 11 59 -4 47 -23 -4 -6 -1 -7 6 -3 17 11 -8 47 -45 65
-16 8 -92 20 -169 27 -77 7 -141 12 -142 13 -10 4 0 21 11 21 8 0 18 5 22 11
4 8 -3 9 -25 4 -17 -4 -47 -1 -67 5 -27 9 -38 9 -44 1 -5 -9 -14 -9 -34 -1
-39 15 -44 12 -17 -10z"/>
<path d="M794 2535 c7 -60 2 -68 -47 -86 -37 -13 -40 -13 -58 11 -33 44 -40
50 -49 50 -19 0 -10 -25 13 -35 17 -8 21 -17 19 -40 -2 -16 -8 -36 -14 -43 -8
-9 -7 -11 7 -6 9 4 20 2 24 -3 3 -6 14 -7 26 -2 11 4 14 8 8 8 -18 1 -16 21 2
21 8 0 30 14 50 31 19 17 35 26 35 20 0 -9 5 -9 20 -1 11 6 20 19 20 30 0 10
6 21 13 23 6 3 -1 6 -16 6 -21 1 -31 9 -43 34 l-15 32 5 -50z"/>
<path d="M721 2541 c-11 -7 -9 -13 8 -30 24 -24 43 -28 35 -6 -4 8 -10 15 -14
15 -5 0 -10 7 -12 15 -2 9 -8 12 -17 6z"/>
<path d="M677 2533 c-5 -8 37 -63 48 -63 8 0 -23 57 -34 65 -5 3 -12 2 -14 -2z"/>
<path d="M1641 2526 c2 -2 29 -6 59 -9 34 -3 47 -2 35 3 -19 8 -103 14 -94 6z"/>
<path d="M1538 2513 c12 -2 32 -2 45 0 12 2 2 4 -23 4 -25 0 -35 -2 -22 -4z"/>
<path d="M1843 2513 c20 -2 37 -8 37 -12 0 -4 17 -5 38 -2 l37 5 -45 7 c-25 4
-58 7 -75 7 -24 -1 -22 -2 8 -5z"/>
<path d="M1415 2500 c3 -5 12 -10 20 -10 8 0 17 5 20 10 4 6 -5 10 -20 10 -15
0 -24 -4 -20 -10z"/>
<path d="M1358 2493 c7 -3 16 -2 19 1 4 3 -2 6 -13 5 -11 0 -14 -3 -6 -6z"/>
<path d="M1638 2478 c12 -12 25 -19 28 -15 4 4 -1 14 -12 22 -29 22 -41 18
-16 -7z"/>
<path d="M1704 2485 c11 -8 27 -14 35 -14 13 1 12 2 -1 6 -10 2 -18 9 -18 14
0 5 -8 9 -17 9 -16 -1 -16 -2 1 -15z"/>
<path d="M1795 2480 c10 -11 20 -20 22 -20 2 0 -1 9 -7 20 -6 11 -16 20 -22
20 -6 0 -3 -9 7 -20z"/>
<path d="M2600 2488 c0 -8 5 -19 12 -26 9 -9 7 -13 -5 -18 -13 -4 -14 -9 -4
-19 9 -9 14 -10 19 -1 5 7 11 6 20 -6 13 -17 129 -81 135 -74 7 6 -9 36 -19
36 -6 0 -3 11 6 25 9 14 12 25 7 25 -5 0 -15 -10 -23 -22 -11 -16 -20 -20 -39
-15 -29 8 -65 65 -49 81 17 17 11 27 -11 16 -15 -9 -24 -8 -35 1 -11 9 -14 8
-14 -3z"/>
<path d="M1270 2470 c-73 -20 -59 -26 19 -8 28 6 51 15 51 20 0 4 -1 8 -2 7
-2 0 -32 -9 -68 -19z"/>
<path d="M1850 2486 c0 -2 7 -7 16 -10 8 -3 12 -2 9 4 -6 10 -25 14 -25 6z"/>
<path d="M2020 2480 c0 -5 7 -10 16 -10 8 0 12 5 9 10 -3 6 -10 10 -16 10 -5
0 -9 -4 -9 -10z"/>
<path d="M1430 2470 c-34 -7 -34 -7 -5 -8 17 0 39 3 50 8 24 10 4 10 -45 0z"/>
<path d="M1516 2469 c2 -4 -2 -10 -8 -12 -7 -3 -4 -6 8 -6 11 -1 21 5 21 12 0
8 -6 14 -13 14 -7 0 -11 -4 -8 -8z"/>
<path d="M1915 2470 c3 -5 11 -10 16 -10 6 0 7 5 4 10 -3 6 -11 10 -16 10 -6
0 -7 -4 -4 -10z"/>
<path d="M1376 2461 c-3 -5 -16 -7 -29 -4 -16 3 -18 2 -8 -5 11 -8 11 -10 0
-15 -8 -3 -5 -6 8 -6 13 -1 27 8 33 19 10 20 7 29 -4 11z"/>
<path d="M1985 2459 c41 -15 115 -27 110 -18 -3 4 -22 9 -42 12 -21 3 -51 8
-68 11 l-30 6 30 -11z"/>
<path d="M555 2449 c-40 -23 -87 -75 -113 -124 -14 -27 -25 -53 -24 -57 1 -5
-3 -8 -8 -8 -6 0 -10 -6 -10 -14 0 -8 -5 -16 -12 -18 -8 -3 -12 -27 -13 -66 0
-33 -4 -64 -8 -68 -4 -4 -7 0 -7 10 0 9 -4 15 -9 12 -5 -3 -11 3 -14 14 -4 14
-13 20 -34 19 -27 0 -27 -1 -5 -11 12 -6 22 -15 22 -20 0 -15 -30 -21 -45 -8
-23 19 -19 -6 5 -37 17 -22 18 -28 6 -52 -8 -14 -26 -37 -41 -51 -35 -32 -74
-86 -54 -75 7 4 28 18 44 30 17 12 46 30 65 40 19 10 40 25 47 34 16 20 17 7
2 -22 -9 -18 -9 -20 2 -9 7 6 14 22 14 35 1 12 10 40 20 62 10 22 28 81 41
130 22 89 67 185 86 185 5 0 1 -12 -10 -27 -20 -30 -34 -63 -27 -63 6 0 49 82
50 94 1 20 27 17 32 -3 5 -21 43 -31 43 -11 0 6 5 10 10 10 6 0 21 9 33 20 17
16 19 24 11 38 -13 20 -71 27 -99 11z m80 -9 c4 -6 1 -18 -6 -26 -11 -13 -14
-13 -27 0 -8 8 -11 19 -8 25 9 14 33 14 41 1z m-285 -365 c0 -14 -13 -39 -31
-57 l-32 -33 27 37 c14 20 26 46 26 57 0 12 2 21 5 21 3 0 5 -11 5 -25z"/>
<path d="M2123 2445 c0 -11 4 -12 14 -4 7 6 13 13 13 15 0 2 -6 4 -13 4 -8 0
-14 -7 -14 -15z"/>
<path d="M2737 2453 c-4 -3 -7 -11 -7 -17 0 -6 5 -5 12 2 6 6 9 14 7 17 -3 3
-9 2 -12 -2z"/>
<path d="M1143 2438 c-37 -12 -44 -28 -13 -28 11 0 20 4 20 9 0 5 12 14 28 19
36 14 6 13 -35 0z"/>
<path d="M1408 2443 c12 -2 30 -2 40 0 9 3 -1 5 -23 4 -22 0 -30 -2 -17 -4z"/>
<path d="M2165 2440 c3 -5 8 -10 11 -10 2 0 4 5 4 10 0 6 -5 10 -11 10 -5 0
-7 -4 -4 -10z"/>
<path d="M1236 2431 c-3 -5 -16 -7 -29 -4 -22 5 -22 5 -2 -10 26 -21 32 -21
38 3 5 21 2 26 -7 11z"/>
<path d="M1290 2430 c0 -5 5 -10 11 -10 5 0 7 5 4 10 -3 6 -8 10 -11 10 -2 0
-4 -4 -4 -10z"/>
<path d="M2198 2433 c7 -3 16 -2 19 1 4 3 -2 6 -13 5 -11 0 -14 -3 -6 -6z"/>
<path d="M1026 2385 c-33 -14 -67 -31 -75 -38 -9 -8 -37 -25 -62 -40 -49 -28
-96 -72 -51 -48 12 6 27 9 32 6 6 -3 10 2 10 13 0 26 59 52 104 45 22 -3 36
-2 36 5 0 5 -9 8 -20 5 -13 -4 -20 0 -20 10 0 21 39 28 64 11 20 -12 28 -12
67 3 24 10 45 21 47 25 2 4 9 6 15 4 7 -1 9 -1 4 1 -4 3 -4 9 -1 15 4 6 -2 6
-14 -1 -11 -6 -31 -11 -44 -11 -13 0 -29 -5 -35 -11 -6 -6 -19 -9 -29 -7 -15
4 -11 8 16 20 56 26 21 20 -44 -7z m89 -15 c-28 -12 -37 -12 -30 0 3 6 16 10
28 9 21 0 21 -1 2 -9z"/>
<path d="M2275 2400 c6 -10 76 -32 82 -26 2 2 -17 11 -42 19 -25 9 -43 12 -40
7z"/>
<path d="M2200 2396 c0 -2 7 -7 16 -10 8 -3 12 -2 9 4 -6 10 -25 14 -25 6z"/>
<path d="M2818 2380 c14 -6 20 -15 16 -21 -4 -7 -8 -23 -10 -36 -3 -30 39 -54
59 -34 9 9 5 17 -18 35 -17 13 -27 28 -22 32 13 13 68 -49 97 -111 16 -33 36
-90 45 -125 9 -36 25 -86 35 -112 11 -26 20 -59 20 -75 1 -15 8 -39 16 -53 15
-25 15 -24 11 15 -3 22 -3 34 0 28 2 -7 10 -13 17 -13 7 0 21 -9 31 -20 10
-11 20 -18 23 -16 2 3 -12 22 -32 43 -41 43 -55 83 -48 132 3 24 1 32 -7 27
-6 -4 -11 -17 -11 -29 -1 -34 -32 34 -54 118 -38 141 -87 212 -151 221 -33 4
-36 3 -17 -6z"/>
<path d="M2384 2351 c11 -11 23 -21 28 -21 14 0 -1 19 -25 31 -22 12 -22 12
-3 -10z"/>
<path d="M2338 2353 c6 -2 12 -12 12 -21 0 -9 11 -22 25 -29 14 -6 23 -7 20
-3 -3 5 1 11 7 13 7 3 3 6 -9 6 -13 1 -23 7 -23 15 0 13 -22 27 -38 25 -4 0
-1 -3 6 -6z"/>
<path d="M2445 2314 c11 -8 19 -17 18 -19 -9 -16 -1 -24 11 -13 13 11 12 15
-7 30 -12 10 -26 18 -32 17 -5 0 -1 -6 10 -15z"/>
<path d="M925 2299 c-3 -4 1 -9 9 -12 14 -6 26 0 26 13 0 9 -30 9 -35 -1z"/>
<path d="M892 2268 c-7 -7 -27 -18 -45 -25 l-32 -12 34 2 c22 2 39 11 49 25
16 24 13 29 -6 10z"/>
<path d="M2541 2252 c8 -12 19 -22 25 -22 20 0 64 -41 64 -60 0 -14 5 -18 16
-13 9 3 20 0 24 -8 5 -7 11 -11 14 -8 6 6 -82 84 -128 114 l-29 19 14 -22z"/>
<path d="M2503 2249 c10 -6 22 -22 27 -35 5 -13 14 -24 20 -24 7 0 8 6 0 19
-14 27 -39 51 -53 51 -7 0 -4 -5 6 -11z"/>
<path d="M745 2197 c-157 -135 -282 -315 -320 -458 -18 -68 -18 -72 1 -65 10
4 13 2 8 -7 -5 -8 -2 -7 9 2 15 12 16 15 2 25 -13 9 -14 17 -4 46 7 19 18 39
26 43 7 4 13 16 13 25 0 9 5 33 10 54 8 27 15 35 28 32 9 -3 26 2 37 10 19 13
18 14 -8 9 -16 -3 -27 -1 -27 6 0 6 5 11 10 11 6 0 10 6 10 14 0 20 20 31 29
17 5 -8 13 -7 27 4 18 15 18 15 0 13 -32 -5 -29 20 7 59 19 21 51 56 71 78 30
34 37 38 47 25 9 -13 10 -13 6 1 -3 9 4 24 15 34 17 14 22 15 29 4 6 -10 9
-11 9 -2 0 7 10 12 21 10 12 -1 24 4 27 12 3 9 -1 11 -17 6 -24 -7 -29 13 -9
33 30 30 -3 7 -57 -41z"/>
<path d="M2580 2166 c0 -2 7 -7 16 -10 8 -3 12 -2 9 4 -6 10 -25 14 -25 6z"/>
<path d="M758 2153 c7 -3 16 -2 19 1 4 3 -2 6 -13 5 -11 0 -14 -3 -6 -6z"/>
<path d="M2690 2126 c0 -3 15 -15 33 -27 l32 -23 -24 27 c-22 24 -41 35 -41
23z"/>
<path d="M695 2105 l-30 -13 27 -1 c15 -1 30 4 33 10 11 17 2 18 -30 4z"/>
<path d="M2691 2084 c0 -11 3 -14 6 -6 3 7 2 16 -1 19 -3 4 -6 -2 -5 -13z"/>
<path d="M3098 2083 c6 -2 18 -2 25 0 6 3 1 5 -13 5 -14 0 -19 -2 -12 -5z"/>
<path d="M656 2062 c-4 -10 -18 -24 -32 -31 -15 -6 -24 -14 -21 -17 9 -9 46
15 58 37 6 11 8 23 6 26 -3 2 -8 -4 -11 -15z"/>
<path d="M2760 2047 c0 -8 12 -19 28 -26 l27 -13 -24 26 c-28 30 -31 31 -31
13z"/>
<path d="M3070 2041 c0 -26 17 -36 36 -21 12 11 12 14 -3 26 -25 19 -33 17
-33 -5z"/>
<path d="M2796 1977 c3 -10 9 -15 12 -12 3 3 0 11 -7 18 -10 9 -11 8 -5 -6z"/>
<path d="M2820 1953 c-13 -15 -13 -16 2 -11 8 4 21 1 28 -5 10 -10 10 -7 1 11
-14 26 -12 26 -31 5z"/>
<path d="M286 1912 c-3 -6 -24 -20 -47 -31 -33 -18 -40 -19 -36 -6 10 25 -45
-8 -77 -46 -52 -61 -64 -113 -54 -234 3 -36 6 -40 33 -45 26 -4 30 -10 33 -40
2 -33 2 -34 -10 -12 -7 13 -28 33 -47 45 -32 20 -34 20 -28 3 5 -12 1 -26 -9
-37 -16 -18 -16 -20 1 -39 10 -11 13 -20 7 -20 -14 0 -16 -32 -3 -46 6 -5 6
-25 0 -52 -10 -46 2 -139 24 -190 19 -44 89 -123 104 -117 8 2 31 -4 53 -15
67 -34 112 -156 76 -206 -13 -17 -14 -15 -9 22 3 23 0 57 -6 75 -10 31 -65 93
-101 114 -15 9 46 -74 63 -86 5 -4 9 -22 10 -40 1 -19 7 -37 12 -41 6 -5 3
-14 -8 -25 -17 -16 -19 -17 -30 -2 -10 13 -15 14 -24 4 -13 -15 3 -25 38 -25
10 0 19 -5 19 -11 0 -7 12 -9 35 -5 31 6 35 4 35 -14 0 -27 31 -152 37 -147 2
3 -3 34 -11 70 -8 36 -18 96 -22 133 -4 48 -14 81 -31 107 -15 24 -22 46 -19
60 3 12 3 16 0 10 -3 -7 -10 -13 -15 -13 -6 0 -8 4 -5 9 10 16 -5 40 -20 34
-18 -7 -131 68 -158 104 l-18 25 48 -26 c52 -28 115 -36 96 -13 -6 7 -23 14
-38 15 -61 5 -125 67 -123 119 1 25 2 26 7 6 9 -30 38 -63 56 -63 9 0 4 11
-15 29 -20 20 -29 39 -29 61 0 18 4 29 10 25 6 -3 10 -14 10 -24 0 -10 6 -24
14 -30 11 -9 12 -6 8 14 -4 24 -3 25 23 15 23 -9 26 -8 21 6 -6 17 9 54 23 54
5 0 12 -10 15 -22 6 -23 7 -23 31 7 29 35 31 45 10 45 -8 0 -15 5 -15 10 0 7
6 7 19 1 21 -12 31 -5 31 18 0 13 -2 13 -9 3 -7 -11 -9 -11 -13 0 -6 15 26 61
36 51 11 -11 6 24 -7 56 -7 17 -16 28 -20 24 -4 -3 -7 3 -7 15 0 12 -6 22 -14
22 -7 0 -20 10 -29 23 -8 12 -19 18 -23 14 -5 -4 -4 -11 1 -15 15 -11 18 -143
4 -177 -10 -26 -13 -27 -16 -10 -2 11 -9 30 -15 42 -6 12 -8 28 -5 35 2 8 -1
22 -9 33 -18 25 -18 35 3 35 9 0 13 3 10 6 -3 4 -2 14 3 24 7 13 4 22 -9 34
-17 15 -17 14 -14 -17 l4 -32 -18 28 c-20 31 -28 34 -37 12 -3 -8 -1 -15 4
-15 6 0 10 -4 10 -10 0 -21 -20 -9 -26 16 -5 18 -1 29 12 39 10 7 22 11 26 9
5 -3 19 7 33 23 23 26 26 27 39 11 19 -26 26 -22 26 12 0 26 -4 30 -28 30 -28
0 -53 -19 -66 -50 -3 -8 -4 -1 -1 15 8 42 32 57 82 52 40 -4 41 -4 33 19 -7
18 -5 26 8 33 14 9 14 10 2 11 -9 0 -21 -5 -26 -10 -6 -6 -25 -14 -42 -19 -26
-8 -32 -7 -32 5 0 21 79 55 101 43 17 -9 48 15 36 28 -4 3 -2 12 5 20 6 7 8
16 5 19 -3 3 -8 1 -11 -4z m-176 -418 c0 -17 -22 -14 -28 4 -2 7 3 12 12 12 9
0 16 -7 16 -16z m50 -90 c0 -12 -25 -54 -32 -54 -4 0 -8 2 -8 4 0 2 -3 12 -6
20 -5 12 -2 15 12 9 12 -4 15 -3 10 5 -4 7 -15 12 -24 12 -13 0 -14 2 -3 9 12
8 51 4 51 -5z"/>
<path d="M2852 1885 c3 -3 16 -8 28 -10 12 -2 20 -1 16 2 -4 4 -16 8 -28 10
-12 2 -19 1 -16 -2z"/>
<path d="M506 1849 c-19 -19 -19 -19 2 -19 12 0 22 2 22 4 0 2 3 11 6 20 8 22
-7 19 -30 -5z"/>
<path d="M3090 1855 c0 -13 28 -35 45 -35 9 0 -28 49 -37 50 -5 0 -8 -7 -8
-15z"/>
<path d="M1086 1802 c-75 -66 -292 -212 -315 -212 -10 0 -36 7 -57 16 -80 34
-203 18 -244 -31 -13 -15 -11 -20 9 -36 31 -25 129 -25 210 0 58 18 81 14 66
-10 -4 -6 -13 -8 -21 -5 -8 3 -14 -1 -14 -10 0 -27 45 -13 48 16 4 26 29 60
44 60 5 0 35 17 66 38 87 59 89 59 54 12 -32 -44 -43 -100 -19 -100 6 0 32 14
57 30 53 35 60 36 60 10 0 -35 35 -44 115 -30 52 9 82 9 106 2 35 -11 83 -10
157 3 27 4 54 3 71 -5 24 -10 35 -8 68 9 31 15 43 17 52 8 11 -11 43 -14 201
-19 25 -1 68 7 97 16 48 16 54 16 84 1 24 -13 45 -15 81 -11 30 4 62 2 83 -5
28 -10 47 -10 106 3 64 14 75 14 87 1 8 -8 24 -12 36 -9 67 16 99 18 105 7 5
-8 22 -9 57 -2 27 5 96 7 154 4 144 -7 201 -6 211 4 4 4 -18 7 -49 6 l-57 -3
33 15 c37 17 41 31 12 40 -12 4 -33 -1 -53 -14 -46 -28 -117 -43 -117 -25 0
17 -5 17 -69 2 -35 -8 -58 -8 -73 -1 -16 7 -41 6 -83 -3 -79 -17 -85 -17 -79
1 8 19 -4 19 -81 0 -33 -8 -76 -14 -95 -14 l-35 0 33 16 c37 19 40 29 13 38
-11 3 -39 -5 -66 -20 -32 -16 -64 -25 -95 -25 -71 0 -77 16 -29 75 22 27 47
61 55 77 15 30 19 88 5 88 -34 0 -114 -110 -125 -171 -4 -21 -12 -42 -19 -47
-19 -16 -101 -34 -133 -30 l-29 4 27 11 c34 15 44 31 22 40 -9 3 -39 -5 -69
-20 -58 -30 -122 -36 -131 -12 -4 8 12 45 35 83 40 67 49 92 33 92 -14 0 -40
-32 -71 -90 l-29 -53 -109 -28 c-127 -33 -133 -34 -133 -14 0 20 -73 20 -155
0 -83 -20 -112 -19 -125 5 -14 27 -1 51 62 116 28 29 48 58 46 65 -3 9 -35
-16 -87 -68 -92 -92 -148 -139 -158 -130 -6 6 6 23 102 143 21 27 61 67 87 88
45 35 60 56 39 56 -6 0 -35 -22 -65 -48z m984 -22 c0 -34 -83 -160 -97 -147
-6 7 17 60 49 110 28 44 48 60 48 37z m-1357 -194 l32 -13 -58 -17 c-91 -28
-214 -23 -204 7 2 7 24 20 48 30 49 19 127 16 182 -7z m842 -5 c-6 -5 -21 -12
-35 -16 -22 -7 -23 -6 -11 9 7 9 23 16 34 16 13 0 17 -4 12 -9z"/>
<path d="M2894 1797 c1 -29 46 -107 46 -80 0 6 -7 16 -15 23 -8 7 -15 24 -15
39 0 14 -4 32 -9 39 -5 8 -7 1 -7 -21z"/>
<path d="M3090 1815 c0 -10 10 -15 33 -14 17 0 25 3 17 6 -8 3 -23 10 -32 15
-13 6 -18 5 -18 -7z"/>
<path d="M2920 1788 c0 -9 5 -20 11 -23 17 -11 20 0 4 21 -13 17 -14 17 -15 2z"/>
<path d="M472 1762 c-13 -13 -22 -26 -19 -28 2 -2 14 7 27 21 13 14 22 26 19
28 -2 2 -14 -8 -27 -21z"/>
<path d="M3130 1779 c0 -9 49 -33 56 -27 1 2 -11 11 -27 20 -16 9 -29 13 -29
7z"/>
<path d="M3141 1733 c8 -9 23 -11 43 -8 39 8 71 -23 85 -80 l9 -40 1 33 c2 54
-23 90 -67 97 -83 13 -83 13 -71 -2z"/>
<path d="M2410 1725 c0 -8 5 -15 10 -15 6 0 10 7 10 15 0 8 -4 15 -10 15 -5 0
-10 -7 -10 -15z"/>
<path d="M3208 1680 c12 -12 22 -30 22 -40 0 -11 5 -20 10 -20 6 0 10 11 10
23 0 26 -28 57 -50 57 -9 0 -6 -7 8 -20z"/>
<path d="M2953 1682 c-8 -5 -9 -13 -3 -22 9 -13 10 -13 10 0 0 13 1 13 10 0 8
-13 10 -13 10 2 0 21 -12 29 -27 20z"/>
<path d="M400 1629 c0 -23 4 -30 17 -27 9 2 18 9 21 16 2 8 -2 10 -13 5 -14
-5 -16 -2 -10 15 4 13 2 22 -4 22 -6 0 -11 -14 -11 -31z"/>
<path d="M3176 1583 c-14 -14 -23 -30 -20 -35 3 -4 0 -8 -5 -8 -6 0 -12 12
-12 28 -2 21 -3 18 -9 -13 -6 -34 -7 -36 -9 -11 -1 37 -8 31 -14 -13 -3 -19
-11 -37 -18 -42 -9 -5 -8 -12 5 -25 14 -13 17 -27 13 -58 l-6 -41 12 34 13 33
18 -41 c11 -22 27 -43 37 -46 17 -6 23 -17 20 -37 0 -5 5 -7 12 -5 7 1 11 -8
10 -26 -2 -24 0 -27 13 -17 7 7 14 26 14 42 0 17 4 27 10 23 19 -12 10 -55
-19 -85 -28 -30 -51 -39 -51 -20 0 6 -4 10 -10 10 -5 0 -10 -7 -10 -15 0 -25
46 -17 79 14 24 23 31 37 31 68 0 55 -10 83 -29 82 -10 0 -11 -2 -3 -6 16 -6
15 -30 -2 -36 -16 -6 -36 11 -36 31 0 7 -4 11 -9 8 -12 -8 -29 86 -24 132 2
20 4 45 4 56 0 14 7 11 32 -18 26 -28 35 -34 45 -24 16 16 15 39 0 37 -28 -3
-38 2 -38 20 0 32 -17 33 -44 4z"/>
<path d="M2966 1588 c3 -4 9 -8 15 -8 5 0 9 4 9 8 0 5 -7 9 -15 9 -8 0 -12 -4
-9 -9z"/>
<path d="M390 1576 c0 -9 5 -16 10 -16 6 0 10 4 10 9 0 6 -4 13 -10 16 -5 3
-10 -1 -10 -9z"/>
<path d="M2962 1536 c7 -8 15 -12 17 -11 5 6 -10 25 -20 25 -5 0 -4 -6 3 -14z"/>
<path d="M380 1507 c0 -27 4 -37 13 -35 18 7 20 31 3 53 -15 19 -15 18 -16
-18z"/>
<path d="M3262 1498 c-16 -16 -15 -28 4 -49 14 -15 18 -16 30 -4 20 20 17 25
-13 25 -25 1 -26 2 -10 14 9 7 17 16 17 20 0 10 -15 7 -28 -6z"/>
<path d="M350 1455 c0 -19 2 -35 4 -35 2 0 6 16 8 35 2 19 0 35 -4 35 -4 0 -8
-16 -8 -35z"/>
<path d="M3201 1447 l-1 -49 30 7 c19 4 30 3 30 -4 0 -6 7 -11 15 -11 8 0 15
7 15 15 0 8 -4 15 -8 15 -5 0 -19 9 -32 20 -12 11 -26 17 -31 15 -4 -3 -10 5
-12 17 -2 13 -5 1 -6 -25z"/>
<path d="M2990 1469 c0 -5 5 -7 10 -4 6 3 10 8 10 11 0 2 -4 4 -10 4 -5 0 -10
-5 -10 -11z"/>
<path d="M2972 1425 c0 -16 2 -22 5 -12 2 9 2 23 0 30 -3 6 -5 -1 -5 -18z"/>
<path d="M380 1371 c0 -23 2 -41 4 -41 3 0 15 14 27 32 13 17 18 29 12 25 -6
-4 -19 0 -27 9 -15 14 -16 12 -16 -25z"/>
<path d="M2964 1365 c5 -12 16 -22 23 -22 21 0 15 21 -10 33 -22 10 -23 9 -13
-11z"/>
<path d="M3130 1365 c0 -14 4 -25 9 -25 4 0 6 11 3 25 -2 14 -6 25 -8 25 -2 0
-4 -11 -4 -25z"/>
<path d="M395 1310 c4 -6 11 -8 16 -5 14 9 11 15 -7 15 -8 0 -12 -5 -9 -10z"/>
<path d="M410 1280 c0 -5 5 -10 10 -10 6 0 10 5 10 10 0 6 -4 10 -10 10 -5 0
-10 -4 -10 -10z"/>
<path d="M2975 1280 c-3 -5 -1 -10 4 -10 6 0 11 5 11 10 0 6 -2 10 -4 10 -3 0
-8 -4 -11 -10z"/>
<path d="M568 1256 c-26 -19 -22 -42 12 -66 37 -26 30 -43 -13 -35 -30 6 -31
5 -13 -10 37 -29 76 -12 76 32 0 15 -10 28 -30 38 -32 17 -32 40 1 30 23 -8
26 10 3 19 -19 7 -15 8 -36 -8z"/>
<path d="M835 1262 c-6 -4 -10 -35 -10 -69 0 -63 0 -63 29 -63 28 0 29 1 11
20 -13 15 -16 30 -13 65 6 46 0 60 -17 47z"/>
<path d="M1005 1258 c-31 -17 -55 -46 -55 -66 0 -21 18 -42 37 -42 10 0 10 5
1 25 -26 58 41 102 69 45 10 -20 10 -29 -2 -47 -21 -31 -19 -34 10 -21 37 17
35 70 -4 97 -34 24 -30 24 -56 9z"/>
<path d="M1147 1263 c-12 -19 -11 -127 1 -131 8 -2 12 10 12 39 l0 43 32 -32
c17 -18 36 -31 42 -29 6 2 12 27 14 55 2 41 0 52 -12 52 -12 0 -14 -7 -9 -30
7 -40 -5 -38 -43 6 -18 20 -34 32 -37 27z"/>
<path d="M1370 1200 l0 -70 31 0 c45 0 89 35 89 70 0 35 -44 70 -89 70 l-31 0
0 -70z m84 17 c12 -34 -1 -61 -33 -65 -19 -3 -21 1 -21 48 0 47 2 51 22 48 14
-2 26 -14 32 -31z"/>
<path d="M1535 1200 l0 -70 41 0 c24 0 44 5 47 13 3 8 -6 12 -26 12 -35 0 -49
24 -18 32 12 3 21 12 21 20 0 9 -6 13 -15 10 -19 -8 -31 11 -16 26 9 9 16 8
31 -1 11 -7 21 -8 25 -2 8 13 -28 30 -62 30 l-28 0 0 -70z"/>
<path d="M1763 1250 c-25 -15 -33 -27 -33 -49 0 -35 33 -71 65 -71 27 0 62 25
47 34 -6 3 -13 2 -17 -4 -3 -5 -16 -10 -29 -10 -31 0 -46 35 -32 73 10 26 15
28 44 23 29 -4 32 -3 22 9 -16 20 -29 19 -67 -5z"/>
<path d="M1928 1257 c-29 -11 -42 -43 -32 -82 8 -33 33 -33 26 0 -8 43 6 77
31 73 33 -5 50 -47 31 -75 -15 -23 -9 -28 20 -17 10 4 16 18 16 39 0 26 -7 39
-29 54 -16 12 -31 21 -33 20 -1 -1 -15 -6 -30 -12z"/>
<path d="M2076 1263 c-3 -3 -6 -35 -6 -70 0 -49 3 -63 15 -63 12 0 15 14 15
64 0 60 -8 84 -24 69z"/>
<path d="M2156 1203 c1 -56 4 -69 19 -71 14 -3 16 1 11 21 -4 19 -1 26 14 30
11 3 20 13 20 22 0 12 -5 15 -21 10 -17 -6 -20 -3 -17 12 3 14 12 17 38 16 33
-3 34 -2 16 12 -11 8 -34 15 -51 15 l-31 0 2 -67z"/>
<path d="M2291 1256 c-7 -8 -11 -37 -9 -68 2 -41 7 -54 20 -56 15 -3 17 2 12
27 -6 27 -4 31 15 31 13 0 21 6 21 16 0 10 -6 14 -15 10 -10 -4 -15 1 -15 15
0 18 4 20 28 15 26 -6 26 -6 8 9 -25 19 -50 19 -65 1z"/>
<path d="M2412 1261 c-13 -8 -11 -28 14 -113 4 -12 15 -18 34 -18 23 0 30 7
44 40 20 51 21 90 1 90 -12 0 -15 -13 -15 -56 0 -52 -1 -55 -22 -52 -20 3 -23
10 -26 53 -4 55 -11 68 -30 56z"/>
<path d="M2720 1268 c-1 -2 -2 -33 -3 -71 l-2 -67 33 0 c17 0 32 5 32 10 0 6
-7 10 -15 10 -22 0 -18 37 5 43 11 3 20 10 20 17 0 7 -8 9 -20 5 -16 -5 -20
-2 -20 16 0 19 4 21 33 15 30 -5 31 -5 13 9 -16 12 -75 22 -76 13z"/>
<path d="M706 1222 c-10 -20 -21 -45 -26 -54 -13 -22 -13 -38 -1 -38 5 0 13 9
16 20 7 23 55 28 55 6 0 -13 29 -31 37 -22 5 5 -45 113 -56 120 -5 3 -16 -11
-25 -32z m21 -24 c-3 -8 -6 -5 -6 6 -1 11 2 17 5 13 3 -3 4 -12 1 -19z"/>
<path d="M2580 1211 c0 -27 -3 -56 -6 -65 -4 -12 0 -16 15 -16 16 0 21 6 21
26 0 23 1 24 16 10 17 -18 44 -21 44 -6 0 6 -4 10 -10 10 -5 0 -10 18 -10 40
0 22 -4 40 -10 40 -5 0 -10 -9 -10 -20 0 -11 -5 -20 -11 -20 -7 0 -9 10 -7 25
4 19 1 25 -13 25 -16 0 -19 -8 -19 -49z"/>
<path d="M170 1230 c-12 -7 -12 -12 -3 -21 10 -10 14 -9 19 5 4 9 5 19 2 21
-2 2 -10 0 -18 -5z"/>
<path d="M3222 1169 c-45 -25 -57 -28 -70 -17 -13 11 -14 11 -10 -2 2 -8 14
-16 27 -18 23 -4 111 42 111 58 0 12 5 14 -58 -21z"/>
<path d="M2940 1180 c0 -5 5 -10 10 -10 6 0 10 5 10 10 0 6 -4 10 -10 10 -5 0
-10 -4 -10 -10z"/>
<path d="M440 1168 c0 -18 18 -34 28 -24 3 4 -2 14 -11 23 -16 16 -17 16 -17
1z"/>
<path d="M2912 1145 c0 -16 2 -22 5 -12 2 9 2 23 0 30 -3 6 -5 -1 -5 -18z"/>
<path d="M1015 1140 c3 -5 8 -10 11 -10 2 0 4 5 4 10 0 6 -5 10 -11 10 -5 0
-7 -4 -4 -10z"/>
<path d="M465 1120 c3 -5 8 -10 11 -10 2 0 4 5 4 10 0 6 -5 10 -11 10 -5 0 -7
-4 -4 -10z"/>
<path d="M3168 1075 c-39 -29 -48 -32 -48 -18 0 15 -4 14 -19 -6 -10 -13 -16
-32 -13 -43 2 -10 -2 -26 -10 -36 -9 -9 -18 -40 -22 -68 -6 -48 -5 -51 19 -62
28 -13 51 -6 74 22 8 10 9 16 1 21 -5 3 -10 -2 -10 -11 0 -16 -1 -16 -15 2
-19 25 -19 57 0 97 l16 32 -21 -25 c-18 -20 -21 -34 -18 -82 3 -57 3 -57 -14
-35 -23 29 -22 54 1 101 11 21 17 44 14 52 -3 8 1 14 11 14 29 0 84 33 95 56
6 13 10 24 8 24 -1 0 -23 -16 -49 -35z"/>
<path d="M490 1064 c0 -17 17 -36 24 -26 3 5 -1 15 -9 22 -8 7 -15 9 -15 4z"/>
<path d="M520 1000 c0 -5 6 -10 14 -10 8 0 17 -6 19 -12 4 -10 6 -10 6 -1 1 7
-8 17 -19 23 -14 7 -20 7 -20 0z"/>
<path d="M612 879 c2 -7 10 -15 17 -17 8 -3 12 1 9 9 -2 7 -10 15 -17 17 -8 3
-12 -1 -9 -9z"/>
<path d="M700 789 c0 -5 5 -7 10 -4 6 3 10 8 10 11 0 2 -4 4 -10 4 -5 0 -10
-5 -10 -11z"/>
<path d="M3000 764 c0 -8 5 -12 10 -9 6 4 8 11 5 16 -9 14 -15 11 -15 -7z"/>
<path d="M735 760 c-3 -6 1 -7 9 -4 18 7 21 14 7 14 -6 0 -13 -4 -16 -10z"/>
<path d="M2991 724 c0 -11 3 -14 6 -6 3 7 2 16 -1 19 -3 4 -6 -2 -5 -13z"/>
<path d="M850 666 c0 -2 7 -6 15 -10 8 -3 15 -1 15 4 0 6 -7 10 -15 10 -8 0
-15 -2 -15 -4z"/>
<path d="M2778 565 c-9 -21 -9 -29 5 -42 13 -13 19 -14 31 -4 12 10 12 16 -1
41 -18 36 -20 37 -35 5z"/>
<path d="M2821 573 c-1 -16 5 -23 17 -23 10 0 13 3 6 8 -6 4 -14 14 -17 22 -4
10 -6 8 -6 -7z"/>
<path d="M634 505 c-14 -21 -19 -38 -13 -46 7 -11 9 -11 9 -1 0 7 4 11 9 7 12
-7 44 37 32 45 -4 3 -10 10 -12 16 -2 6 -14 -3 -25 -21z"/>
<path d="M582 518 c7 -20 48 -23 48 -4 0 11 -9 16 -26 16 -16 0 -24 -5 -22
-12z"/>
<path d="M1150 521 c0 -5 5 -13 10 -16 6 -3 10 -2 10 4 0 5 -4 13 -10 16 -5 3
-10 2 -10 -4z"/>
<path d="M2740 515 c0 -8 -9 -15 -20 -15 -25 0 -25 -3 4 -34 29 -32 40 -33 30
-3 -3 12 -3 19 1 15 5 -4 14 -3 22 4 11 9 11 14 -3 29 -21 23 -34 24 -34 4z"/>
<path d="M2655 499 c-4 -6 -5 -13 -2 -16 7 -7 27 6 27 18 0 12 -17 12 -25 -2z"/>
<path d="M671 467 c-24 -26 -20 -60 6 -50 11 4 14 2 9 -5 -4 -7 -1 -12 8 -12
8 0 17 -6 19 -12 3 -8 6 -6 6 5 1 10 9 30 18 44 17 26 17 26 -5 21 -17 -5 -22
-2 -22 13 0 25 -12 24 -39 -4z"/>
<path d="M2690 453 c0 -4 5 -15 10 -23 8 -13 10 -13 10 2 0 9 -4 20 -10 23 -5
3 -10 3 -10 -2z"/>
<path d="M2655 429 c12 -39 27 -48 23 -15 -2 16 -9 31 -17 34 -10 3 -11 -2 -6
-19z"/>
<path d="M736 414 c-4 -10 -2 -13 7 -8 9 6 9 5 0 -8 -11 -12 -9 -18 7 -33 20
-18 20 -17 20 11 0 17 5 35 12 42 9 9 6 12 -14 12 -14 0 -29 -7 -32 -16z"/>
<path d="M2606 421 c-7 -11 3 -41 13 -41 18 0 30 24 20 37 -13 15 -26 17 -33
4z"/>
<path d="M785 399 c-4 -5 -4 -22 0 -37 7 -25 8 -25 15 -7 17 41 4 76 -15 44z"/>
<path d="M1740 301 c0 -5 12 -19 28 -30 26 -20 26 -20 5 -21 -13 0 -23 5 -23
11 0 6 -7 3 -16 -6 -9 -9 -13 -19 -10 -23 12 -11 76 -9 76 2 0 6 5 4 10 -4 8
-12 10 -12 9 5 0 12 -16 31 -39 47 -22 15 -40 24 -40 19z"/>
<path d="M1688 262 c-31 -28 -31 -29 -14 -53 l17 -24 -7 30 -7 30 21 -25 c16
-19 21 -21 22 -9 0 9 -7 22 -16 30 -14 11 -13 15 8 31 13 9 20 18 16 18 -4 0
-22 -13 -40 -28z"/>
<path d="M2323 273 c9 -2 23 -2 30 0 6 3 -1 5 -18 5 -16 0 -22 -2 -12 -5z"/>
<path d="M1124 234 c-2 -24 -1 -25 17 -8 24 21 24 34 2 34 -12 0 -18 -8 -19
-26z"/>
<path d="M2260 249 c-14 -6 -20 -13 -14 -17 6 -4 13 -15 17 -24 3 -10 13 -18
21 -18 9 0 13 6 10 15 -11 29 8 39 27 14 13 -16 19 -19 19 -9 0 36 -39 55 -80
39z"/>
<path d="M1306 208 c21 -24 49 -51 61 -61 l23 -19 -21 37 c-20 34 -76 85 -94
85 -4 0 10 -19 31 -42z"/>
<path d="M2157 220 c-16 -17 -24 -30 -19 -30 9 0 33 25 46 48 11 19 4 14 -27
-18z"/>
<path d="M1830 219 c0 -6 9 -13 21 -16 12 -3 18 -11 15 -19 -3 -8 -1 -14 4
-14 16 0 11 26 -8 43 -22 20 -32 22 -32 6z"/>
<path d="M1150 206 c-6 -8 -18 -12 -25 -10 -9 4 -12 0 -9 -13 7 -27 45 -25 42
2 -3 16 3 20 30 22 46 2 54 13 10 13 -20 0 -41 -6 -48 -14z"/>
<path d="M2020 180 c0 -20 -6 -42 -12 -49 -11 -11 -10 -12 1 -6 12 7 41 65 41
83 0 5 -7 9 -15 9 -11 0 -15 -11 -15 -37z"/>
<path d="M1620 206 c0 -2 11 -6 25 -8 13 -3 22 -1 19 3 -5 9 -44 13 -44 5z"/>
<path d="M1964 194 c4 -14 -1 -31 -16 -50 l-23 -29 25 16 c28 18 38 55 20 73
-9 8 -11 6 -6 -10z"/>
<path d="M1400 179 c0 -15 13 -37 31 -55 l30 -29 -27 50 c-35 64 -34 63 -34
34z"/>
<path d="M1784 163 c2 -24 -64 -30 -81 -7 -20 27 -44 10 -38 -27 3 -17 1 -36
-4 -43 -13 -15 3 -41 19 -31 7 4 19 23 26 42 13 30 19 34 47 31 25 -2 35 -10
49 -38 l16 -35 14 32 c11 25 17 30 26 21 13 -13 42 5 42 26 0 6 -5 4 -10 -4
-8 -13 -11 -13 -19 -1 -5 7 -13 11 -19 7 -5 -3 -13 5 -16 19 -8 30 -55 37 -52
8z m46 -13 c0 -5 -5 -10 -11 -10 -5 0 -7 5 -4 10 3 6 8 10 11 10 2 0 4 -4 4
-10z"/>
<path d="M2064 166 c-6 -7 -17 -23 -23 -37 -11 -22 -10 -22 13 4 14 15 26 32
26 38 0 12 -3 11 -16 -5z"/>
<path d="M1165 150 c-3 -6 1 -7 9 -4 18 7 21 14 7 14 -6 0 -13 -4 -16 -10z"/>
<path d="M1585 139 c-5 -14 -1 -25 12 -34 22 -16 22 -17 16 23 -6 37 -19 42
-28 11z"/>
<path d="M1632 121 c4 -13 18 -16 19 -4 0 4 -5 9 -11 12 -7 2 -11 -2 -8 -8z"/>
<path d="M1725 98 c-4 -10 -4 -26 0 -35 8 -17 8 -17 12 0 3 9 3 25 0 35 -4 16
-4 16 -12 0z"/>
<path d="M1756 94 c-8 -21 -3 -26 18 -18 9 4 15 11 13 17 -6 18 -24 19 -31 1z"/>
</g>
</svg>
