<?xml version="1.0" standalone="no"?>
<!DOCTYPE svg PUBLIC "-//W3C//DTD SVG 20010904//EN"
 "http://www.w3.org/TR/2001/REC-SVG-20010904/DTD/svg10.dtd">
<svg version="1.0" xmlns="http://www.w3.org/2000/svg"
 width="135.000000pt" height="155.000000pt" viewBox="0 0 285.000000 310.000000"
 preserveAspectRatio="xMidYMid meet">

<g transform="translate(0.000000,320.000000) scale(0.100000,-0.100000)"
fill="#000000" stroke="none">
<path d="M1370 2904 c0 -27 -1 -27 -15 -8 -15 20 -21 8 -6 -15 7 -10 13 -11
30 -2 25 14 26 24 6 41 -13 11 -15 8 -15 -16z"/>
<path d="M1410 2896 c0 -7 -7 -19 -15 -26 -8 -7 -13 -16 -10 -20 3 -5 -5 -11
-17 -13 -13 -2 -1 -5 25 -6 46 -1 47 0 36 21 -9 16 -9 23 0 26 16 5 13 32 -4
32 -8 0 -15 -6 -15 -14z"/>
<path d="M1170 2882 c-15 -12 -25 -35 -30 -65 -5 -38 -4 -45 6 -36 8 6 11 22
8 38 -7 32 15 55 66 69 l35 10 -31 1 c-18 1 -42 -7 -54 -17z"/>
<path d="M1463 2893 c-7 -2 -13 -12 -13 -21 0 -15 2 -15 10 -2 9 13 11 13 19
0 12 -17 5 -30 -15 -30 -8 0 -13 -4 -9 -10 6 -9 -84 -26 -120 -22 -11 1 -31 3
-45 4 l-25 1 28 12 c15 6 24 14 21 18 -4 4 1 9 10 13 13 5 14 9 5 20 -13 16
-43 19 -34 4 8 -13 -14 -42 -25 -35 -5 3 -11 1 -15 -4 -8 -13 33 -54 45 -46 6
4 10 2 10 -4 0 -5 -10 -12 -22 -14 -16 -3 -13 -5 12 -7 33 -2 33 -3 10 -10
-24 -8 -24 -8 6 -9 19 -1 34 -7 38 -17 5 -14 8 -14 23 1 11 12 26 15 47 11 17
-3 38 -1 46 5 12 8 10 9 -7 4 -13 -3 -30 -2 -40 3 -14 9 -13 12 13 25 16 9 37
25 47 37 10 11 22 18 28 15 5 -4 8 -1 7 7 -2 8 5 12 20 11 13 -2 21 1 17 7 -3
6 -20 10 -36 10 -18 0 -28 4 -24 10 10 16 40 11 69 -11 21 -17 26 -27 22 -45
-4 -14 -2 -24 4 -24 19 0 10 51 -15 75 -23 24 -77 33 -112 18z"/>
<path d="M1627 2855 c14 -25 23 -52 20 -59 -3 -8 2 -20 11 -28 13 -11 14 -11
8 1 -5 7 -10 28 -11 45 -1 17 -10 44 -19 59 -30 44 -37 31 -9 -18z"/>
<path d="M1187 2852 c-10 -10 -17 -23 -17 -28 0 -5 7 -1 14 8 7 10 24 22 37
27 22 9 22 10 3 10 -11 1 -28 -7 -37 -17z"/>
<path d="M1675 2850 c47 -58 69 -93 52 -87 -10 4 -17 2 -17 -4 0 -10 45 -30
58 -27 4 1 16 -3 27 -9 11 -5 38 -13 61 -16 36 -6 42 -4 52 17 8 18 7 29 -4
45 -8 11 -21 21 -27 20 -8 0 -8 -2 1 -6 10 -4 10 -8 1 -19 -14 -17 -33 -19
-23 -1 6 8 3 8 -9 -2 -14 -11 -22 -10 -54 8 l-38 22 29 -27 c26 -23 36 -26 80
-21 44 4 47 3 31 -9 -25 -18 -59 -18 -96 1 -16 9 -34 13 -39 10 -6 -3 -10 0
-10 8 0 26 -25 64 -61 93 -31 25 -32 26 -14 4z"/>
<path d="M1111 2799 c-7 -12 -10 -23 -8 -26 3 -3 11 5 17 17 15 28 8 35 -9 9z"/>
<path d="M1072 2763 c-10 -25 -11 -26 -5 -3 l5 25 -26 -24 c-14 -14 -26 -25
-26 -25 0 -1 16 -2 35 -3 32 -1 35 1 35 28 0 36 -3 36 -18 2z"/>
<path d="M1456 2780 c-11 -3 -15 -9 -10 -13 10 -6 42 9 34 16 -3 3 -14 1 -24
-3z"/>
<path d="M1002 2759 c-18 -29 -90 -59 -124 -52 -17 3 -28 1 -28 -5 0 -6 10
-12 23 -14 13 -2 -24 -18 -97 -42 -135 -44 -196 -88 -196 -142 l0 -29 16 30
c20 39 53 74 86 91 37 19 269 94 293 94 11 1 31 8 45 16 l25 15 -32 -4 c-34
-4 -34 2 0 41 11 12 16 22 11 22 -5 0 -15 -9 -22 -21z"/>
<path d="M842 2750 c0 -14 2 -19 5 -12 2 6 2 18 0 25 -3 6 -5 1 -5 -13z"/>
<path d="M872 2740 c-11 -18 -10 -20 19 -20 31 0 32 0 14 20 -10 11 -19 20
-19 20 -1 0 -7 -9 -14 -20z"/>
<path d="M1975 2660 c11 -5 29 -8 40 -8 16 0 15 2 -5 8 -34 11 -60 11 -35 0z"/>
<path d="M1275 2652 c-10 -7 -18 -32 -10 -32 2 0 9 9 15 20 12 22 11 24 -5 12z"/>
<path d="M1368 2653 c7 -3 16 -2 19 1 4 3 -2 6 -13 5 -11 0 -14 -3 -6 -6z"/>
<path d="M1460 2645 c0 -8 -4 -15 -10 -15 -5 0 -10 -5 -10 -10 0 -6 7 -6 18 1
19 12 26 39 10 39 -4 0 -8 -7 -8 -15z"/>
<path d="M1522 2634 c-7 -8 -8 -14 -3 -14 10 0 25 19 20 25 -2 1 -10 -3 -17
-11z"/>
<path d="M1185 2630 c-7 -11 22 -26 32 -16 4 3 0 6 -8 6 -11 0 -11 2 1 10 13
8 13 10 -2 10 -9 0 -20 -5 -23 -10z"/>
<path d="M1305 2629 c-11 -16 -1 -19 13 -3 7 8 8 14 3 14 -5 0 -13 -5 -16 -11z"/>
<path d="M1380 2630 c-11 -8 -7 -9 15 -4 37 8 45 14 19 14 -10 0 -26 -5 -34
-10z"/>
<path d="M1618 2613 c7 -3 16 -2 19 1 4 3 -2 6 -13 5 -11 0 -14 -3 -6 -6z"/>
<path d="M1090 2600 c-13 -8 -13 -10 2 -10 9 0 20 5 23 10 8 13 -5 13 -25 0z"/>
<path d="M1131 2589 c-13 -11 -22 -21 -20 -23 2 -3 17 7 32 20 15 13 24 24 20
24 -4 -1 -19 -10 -32 -21z"/>
<path d="M1638 2583 c6 -2 18 -2 25 0 6 3 1 5 -13 5 -14 0 -19 -2 -12 -5z"/>
<path d="M1070 2570 c-8 -5 -10 -10 -5 -10 6 0 17 5 25 10 8 5 11 10 5 10 -5
0 -17 -5 -25 -10z"/>
<path d="M959 2529 c-65 -42 -216 -187 -258 -247 -21 -30 -21 -32 -4 -22 10 7
27 26 36 42 9 16 26 32 37 35 11 3 17 9 14 14 -2 5 10 24 27 44 18 19 35 31
38 26 4 -5 15 -3 26 6 19 15 19 15 -4 8 -16 -5 -21 -4 -17 4 4 6 12 11 17 11
6 0 20 10 31 23 13 15 18 17 15 5 -5 -14 -3 -14 17 -4 33 17 61 46 44 46 -8 1
-6 6 6 15 22 17 40 20 32 6 -4 -5 4 -7 16 -3 16 4 19 2 13 -8 -5 -9 -4 -11 3
-6 19 11 14 26 -9 26 -11 0 -17 5 -14 10 10 16 1 12 -66 -31z m5 -24 c-4 -8
-16 -15 -28 -15 -20 1 -20 1 4 15 31 18 30 18 24 0z"/>
<path d="M632 2535 c-22 -26 -18 -36 13 -31 27 4 42 56 16 56 -4 0 -17 -11
-29 -25z"/>
<path d="M2142 2515 c-11 -12 -10 -15 3 -15 8 0 15 7 15 15 0 18 -2 18 -18 0z"/>
<path d="M2155 2496 c-11 -6 -22 -12 -25 -14 -6 -4 23 -22 37 -22 7 0 17 9 22
19 13 24 -5 33 -34 17z"/>
<path d="M550 2463 c0 -6 7 -16 15 -23 21 -17 19 -36 -6 -61 -13 -13 -28 -19
-42 -15 -19 4 -22 1 -22 -24 0 -30 9 -39 20 -20 5 8 11 7 21 -1 13 -11 18 -6
15 14 -1 5 10 22 24 39 14 16 25 36 25 44 0 8 5 14 12 14 6 0 8 3 5 7 -4 3 -2
12 4 20 16 18 -6 18 -23 -1 -11 -12 -15 -12 -30 1 -10 9 -18 11 -18 6z"/>
<path d="M2185 2454 c-20 -15 -20 -15 2 -20 13 -4 20 -11 16 -20 -7 -20 11
-17 30 4 21 23 22 33 2 25 -10 -3 -15 -1 -13 7 4 19 -15 21 -37 4z"/>
<path d="M525 2430 c3 -5 11 -10 16 -10 6 0 7 5 4 10 -3 6 -11 10 -16 10 -6 0
-7 -4 -4 -10z"/>
<path d="M2245 2400 c-3 -5 -2 -10 4 -10 5 0 13 5 16 10 3 6 2 10 -4 10 -5 0
-13 -4 -16 -10z"/>
<path d="M838 2393 c7 -3 16 -2 19 1 4 3 -2 6 -13 5 -11 0 -14 -3 -6 -6z"/>
<path d="M1436 2348 c6 -34 4 -38 -15 -38 -12 0 -21 6 -21 15 0 10 -10 15 -27
15 -16 1 -39 7 -53 15 -32 18 -40 18 -40 0 0 -8 -3 -15 -7 -16 -41 -3 -66 -10
-92 -23 -17 -9 -58 -19 -91 -23 l-61 -6 11 27 c5 15 8 32 5 36 -8 13 -32 1
-39 -18 -3 -9 -15 -33 -26 -52 -15 -25 -20 -45 -16 -71 4 -23 0 -43 -11 -58
-28 -40 -22 -118 14 -181 16 -30 38 -56 47 -58 14 -3 16 4 10 55 -3 32 -12 77
-21 101 -10 28 -12 47 -5 55 5 7 13 26 16 44 6 25 14 33 37 38 32 7 49 25 23
25 -14 0 -14 3 -4 15 26 32 98 56 175 58 79 2 108 -10 87 -36 -13 -15 2 -37
25 -37 7 0 13 -4 13 -10 0 -5 7 -10 15 -10 8 0 19 -9 25 -21 9 -16 14 -18 25
-9 18 15 82 2 91 -18 7 -16 9 -27 12 -65 2 -14 7 -17 22 -12 17 5 20 2 20 -24
0 -40 -25 -64 -60 -56 -34 7 -44 -5 -35 -45 6 -26 9 -29 48 -27 l42 2 3 -40
c3 -47 -16 -99 -51 -137 -23 -25 -52 -132 -40 -150 11 -19 18 -4 19 40 3 70 3
72 17 72 7 0 21 -35 34 -87 12 -49 25 -98 29 -111 5 -19 -3 -32 -42 -70 -107
-103 -297 -148 -281 -66 2 13 -1 31 -7 40 -11 14 -14 14 -35 -3 -22 -18 -23
-21 -8 -50 12 -22 13 -33 5 -41 -13 -13 -21 -79 -11 -95 5 -8 63 50 63 64 0 4
28 9 63 12 79 6 141 35 218 99 l62 51 56 -63 c61 -68 83 -73 101 -25 8 22 4
30 -35 70 -45 44 -55 77 -39 119 10 25 24 19 24 -10 0 -37 24 -25 31 17 3 19
11 44 17 56 16 29 15 78 -1 106 -8 12 -15 42 -16 67 -1 44 -1 44 13 20 15 -25
15 -24 16 22 0 49 -14 72 -23 37 -6 -23 -27 -17 -27 7 0 34 -18 10 -24 -33 -6
-44 -46 -113 -66 -113 -16 0 -15 55 2 95 10 22 18 51 18 64 0 24 -1 24 -14 6
-12 -16 -16 -17 -30 -6 -9 7 -16 21 -16 31 0 10 -7 20 -15 24 -8 3 -15 11 -15
18 1 16 35 58 47 58 4 0 18 -21 29 -47 l22 -48 11 28 c6 15 16 27 22 27 7 0 9
12 5 35 -6 30 -4 35 13 35 11 0 22 9 26 20 8 26 -4 82 -16 74 -5 -3 -6 -17 -3
-31 5 -19 3 -24 -7 -21 -8 3 -16 13 -18 24 -1 10 -10 27 -20 38 -9 10 -15 21
-13 24 2 4 -2 8 -8 10 -6 2 -14 -5 -17 -17 -6 -23 -42 -30 -44 -8 -1 6 -2 18
-3 26 -1 19 -64 20 -76 1 -11 -18 -40 -5 -40 20 0 11 -9 29 -20 40 -23 23 -26
50 -6 50 25 0 25 14 0 45 l-25 30 7 -37z m239 -659 c-4 -19 -3 -34 3 -38 16
-9 19 -63 5 -68 -8 -3 -13 5 -13 22 0 20 -4 26 -15 21 -19 -7 -20 31 -3 69 16
35 31 31 23 -6z"/>
<path d="M2195 2370 c3 -5 11 -10 16 -10 6 0 7 5 4 10 -3 6 -11 10 -16 10 -6
0 -7 -4 -4 -10z"/>
<path d="M2245 2369 c-11 -17 -2 -18 30 -4 l30 13 -27 1 c-15 1 -30 -4 -33
-10z"/>
<path d="M444 2343 c-30 -30 -42 -75 -49 -184 -4 -59 -11 -113 -16 -120 -7
-11 -9 -11 -9 3 0 9 -5 20 -11 24 -8 4 -9 -3 -4 -24 4 -20 1 -41 -10 -61 -14
-29 -14 -31 1 -31 10 0 14 -5 10 -15 -3 -8 -9 -22 -13 -32 -5 -12 -3 -14 7 -8
9 6 11 4 6 -4 -5 -7 -10 -10 -13 -7 -7 6 -59 -20 -68 -34 -4 -7 1 -7 17 -1 13
5 35 12 50 15 22 5 27 11 26 35 -1 15 2 33 6 40 4 7 2 19 -5 27 -10 12 -9 13
3 9 11 -5 15 1 15 22 0 15 5 52 11 82 7 29 12 74 12 98 0 50 25 117 40 108 7
-4 7 2 1 19 -12 31 7 53 29 33 12 -10 12 -9 1 6 -16 21 -16 21 -37 0z"/>
<path d="M2267 2335 c-7 -18 6 -27 27 -19 13 5 14 9 5 20 -15 18 -25 18 -32
-1z"/>
<path d="M766 2298 c-13 -17 -16 -18 -12 -5 3 10 2 15 -4 12 -6 -3 -10 -13
-10 -20 0 -8 -11 -22 -25 -31 -14 -9 -25 -21 -25 -28 0 -6 4 -5 9 3 5 8 14 10
21 6 9 -5 11 -4 6 3 -4 7 -2 12 5 12 12 0 30 20 50 53 14 24 5 21 -15 -5z"/>
<path d="M646 2196 c-9 -14 -12 -26 -6 -26 5 0 10 5 10 11 0 5 4 8 9 4 13 -8
21 8 12 24 -6 9 -13 5 -25 -13z"/>
<path d="M675 2170 c-10 -11 -14 -20 -9 -20 5 0 15 9 22 20 7 11 11 20 9 20
-2 0 -12 -9 -22 -20z"/>
<path d="M591 2096 c-17 -35 -31 -68 -31 -72 0 -15 27 30 33 56 4 14 16 36 27
50 19 24 20 24 20 4 0 -12 -7 -24 -15 -28 -8 -3 -14 -13 -14 -23 1 -17 2 -17
6 0 3 10 10 16 17 14 6 -3 17 6 23 19 6 13 8 22 3 19 -4 -3 -10 2 -14 10 -10
28 -25 15 -55 -49z"/>
<path d="M1075 2099 c-10 -14 -1 -21 19 -13 9 3 13 10 10 15 -7 12 -21 11 -29
-2z"/>
<path d="M2392 2090 c0 -14 2 -19 5 -12 2 6 2 18 0 25 -3 6 -5 1 -5 -13z"/>
<path d="M2419 2067 c-7 -15 -7 -31 0 -47 5 -14 10 -19 10 -12 1 6 8 12 16 12
8 0 19 9 25 21 10 19 10 20 -9 10 -27 -15 -39 5 -15 24 18 13 18 14 1 15 -9 0
-22 -10 -28 -23z"/>
<path d="M313 2039 c2 -13 8 -23 13 -22 15 3 15 20 -1 33 -13 11 -15 9 -12
-11z"/>
<path d="M594 2038 l-19 -23 23 19 c21 18 27 26 19 26 -2 0 -12 -10 -23 -22z"/>
<path d="M541 1974 c0 -11 3 -14 6 -6 3 7 2 16 -1 19 -3 4 -6 -2 -5 -13z"/>
<path d="M2440 1935 c19 -19 36 -35 39 -35 3 0 -10 16 -29 35 -19 19 -36 35
-39 35 -3 0 10 -16 29 -35z"/>
<path d="M520 1910 c0 -6 7 -10 15 -10 8 0 15 2 15 4 0 2 -7 6 -15 10 -8 3
-15 1 -15 -4z"/>
<path d="M1247 1903 c-19 -22 -22 -49 -6 -59 6 -3 15 -2 21 4 6 6 17 8 24 5
16 -6 74 15 74 27 0 14 -28 31 -62 36 -25 4 -38 1 -51 -13z"/>
<path d="M1047 1904 c-11 -11 3 -24 18 -17 20 7 19 -7 -2 -22 -15 -11 -15 -16
-2 -51 11 -29 21 -40 39 -42 24 -2 24 -2 6 13 -11 8 -16 18 -12 22 4 5 18 -4
31 -19 13 -15 26 -24 29 -21 3 4 6 28 6 54 0 39 -4 51 -26 68 -26 20 -74 28
-87 15z"/>
<path d="M539 1873 c-13 -16 -12 -17 4 -4 9 7 17 15 17 17 0 8 -8 3 -21 -13z"/>
<path d="M501 1843 c0 -12 -4 -30 -7 -40 -5 -17 -5 -17 6 0 6 10 9 28 7 40 -4
22 -4 22 -6 0z"/>
<path d="M2495 1844 c38 -30 61 -36 32 -10 -15 14 -33 26 -40 26 -7 0 -3 -8 8
-16z"/>
<path d="M310 1830 c-14 -11 -30 -20 -36 -20 -6 0 -21 -12 -35 -27 l-24 -26
32 23 c17 13 39 20 47 17 18 -7 46 1 46 14 0 4 -8 6 -17 2 -16 -6 -16 -4 1 15
24 27 19 28 -14 2z"/>
<path d="M528 1830 c-4 -14 -9 -36 -13 -50 -4 -16 0 -12 10 9 9 19 14 42 12
50 -2 10 -5 7 -9 -9z"/>
<path d="M2443 1825 c0 -10 10 -15 32 -15 17 0 36 -5 43 -12 7 -7 12 -9 12 -5
0 9 -61 47 -76 47 -6 0 -11 -7 -11 -15z"/>
<path d="M252 1768 c-16 -16 -15 -61 1 -77 10 -10 9 -15 -5 -25 -10 -7 -18
-16 -18 -20 0 -11 28 -6 33 7 7 15 24 -7 33 -41 7 -25 -22 -102 -39 -102 -5 0
-6 8 -2 18 4 9 9 26 11 37 2 11 -1 8 -7 -7 -6 -16 -15 -28 -20 -28 -6 0 -7 -5
-3 -11 3 -6 1 -22 -7 -35 -18 -34 -2 -78 31 -83 l25 -3 -24 19 c-20 16 -22 23
-13 40 6 11 8 24 4 28 -4 5 1 5 10 2 11 -4 21 0 28 11 8 15 11 15 20 2 8 -12
10 -10 10 9 0 13 3 21 7 18 3 -4 12 -2 20 4 24 21 13 1 -18 -33 -18 -18 -29
-27 -25 -20 11 19 -8 14 -26 -7 -16 -19 -15 -20 18 -31 39 -13 72 1 98 43 16
26 32 91 16 67 -8 -12 -10 -10 -10 12 0 15 -4 30 -10 33 -5 3 -10 15 -10 25 0
10 -11 31 -25 46 -25 27 -25 27 -25 4 0 -19 -2 -21 -15 -10 -10 9 -12 17 -6
23 15 15 1 37 -25 37 -27 0 -32 17 -9 26 18 7 20 34 2 34 -7 0 -18 -5 -25 -12z
m55 -74 c-3 -3 -12 -4 -19 -1 -8 3 -5 6 6 6 11 1 17 -2 13 -5z m78 -194 c-20
-39 -26 -38 -19 3 10 57 14 64 25 45 7 -12 5 -27 -6 -48z"/>
<path d="M2454 1769 c-5 -9 -2 -10 11 -5 12 4 27 -1 44 -16 l25 -23 -16 25
c-17 28 -52 38 -64 19z"/>
<path d="M476 1704 c-4 -37 -5 -69 -2 -71 2 -3 7 25 11 62 4 36 5 68 3 71 -3
2 -8 -25 -12 -62z"/>
<path d="M1140 1715 c0 -45 16 -57 51 -39 36 18 37 32 4 32 -14 0 -32 8 -40
18 -13 18 -14 17 -15 -11z"/>
<path d="M210 1696 c0 -8 4 -17 9 -20 5 -4 7 3 4 14 -6 23 -13 26 -13 6z"/>
<path d="M2520 1699 c11 -8 12 -12 2 -16 -6 -2 -9 -9 -6 -14 3 -6 11 -5 20 2
11 9 11 15 3 25 -6 8 -17 14 -23 14 -6 0 -4 -5 4 -11z"/>
<path d="M2474 1690 c-11 -4 -40 -31 -63 -59 -46 -54 -46 -65 1 -108 20 -19
25 -20 42 -7 11 8 14 14 7 14 -7 0 -9 5 -6 10 8 13 -1 13 -25 0 -27 -14 -54
24 -37 51 7 11 19 19 27 19 13 0 13 -1 0 -10 -8 -5 -10 -10 -5 -10 6 0 3 -5
-5 -10 -11 -7 -11 -10 -2 -10 7 0 10 -4 7 -10 -3 -5 0 -10 8 -10 16 0 29 77
15 86 -4 3 2 14 13 25 20 20 22 20 40 3 22 -20 26 -42 4 -24 -13 10 -15 9 -15
-9 0 -11 5 -20 12 -18 19 4 21 -64 1 -78 -19 -14 -9 -37 15 -33 9 2 16 -3 15
-9 -2 -7 2 -13 8 -13 6 0 8 9 3 23 -6 21 -6 21 12 6 19 -17 44 -15 44 2 0 6
-16 17 -35 25 -29 12 -35 19 -35 45 0 25 5 32 32 41 27 10 29 12 15 23 -9 7
-13 16 -9 20 4 4 -3 3 -14 -3 -25 -13 -62 7 -50 26 8 14 8 14 -20 2z"/>
<path d="M495 1680 c-3 -5 -1 -10 4 -10 6 0 11 5 11 10 0 6 -2 10 -4 10 -3 0
-8 -4 -11 -10z"/>
<path d="M1177 1652 c-9 -2 -17 -9 -17 -16 0 -15 42 -56 57 -56 16 0 64 60 57
71 -5 9 -55 9 -97 1z"/>
<path d="M205 1628 c11 -6 26 -18 33 -26 11 -14 12 -14 12 1 0 10 -12 22 -26
27 -34 13 -44 12 -19 -2z"/>
<path d="M502 1631 c-8 -5 -12 -16 -10 -25 2 -12 6 -10 15 9 6 14 10 25 10 25
-1 0 -8 -4 -15 -9z"/>
<path d="M2542 1599 c2 -7 10 -15 17 -17 8 -3 12 1 9 9 -2 7 -10 15 -17 17 -8
3 -12 -1 -9 -9z"/>
<path d="M196 1580 c-11 -3 -15 -9 -10 -13 10 -6 42 9 34 16 -3 3 -14 1 -24
-3z"/>
<path d="M235 1569 c-4 -5 -18 -14 -31 -19 -13 -5 -24 -14 -24 -21 0 -6 6 -8
13 -5 6 3 19 9 29 12 9 3 18 14 21 25 6 21 2 25 -8 8z"/>
<path d="M466 1558 c-8 -31 -7 -71 2 -85 4 -6 7 16 7 48 1 32 0 59 -1 59 -1 0
-4 -10 -8 -22z"/>
<path d="M501 1573 c-1 -6 -4 -20 -7 -30 -5 -17 -5 -17 6 0 6 10 9 23 6 30 -3
9 -5 9 -5 0z"/>
<path d="M2545 1560 c3 -5 12 -10 20 -10 8 0 17 5 20 10 4 6 -5 10 -20 10 -15
0 -24 -4 -20 -10z"/>
<path d="M1295 1507 c-36 -11 -40 -15 -35 -38 6 -31 20 -28 68 13 49 41 42 46
-33 25z"/>
<path d="M500 1495 c-7 -9 -11 -18 -8 -20 3 -3 11 1 18 10 7 9 11 18 8 20 -3
3 -11 -1 -18 -10z"/>
<path d="M2453 1495 c-3 -9 -3 -18 -1 -21 3 -3 8 4 11 16 6 23 -1 27 -10 5z"/>
<path d="M195 1443 c8 -35 32 -73 45 -73 6 0 1 9 -10 20 -11 11 -20 33 -20 50
0 17 -5 30 -11 30 -7 0 -9 -10 -4 -27z"/>
<path d="M2518 1463 c-14 -2 -29 -11 -32 -19 -3 -8 -2 -13 3 -9 17 10 43 -7
38 -26 -3 -11 -1 -17 4 -13 5 3 9 15 9 28 0 12 5 27 12 34 7 7 8 11 3 11 -6
-1 -22 -4 -37 -6z"/>
<path d="M473 1415 c0 -22 2 -30 4 -17 2 12 2 30 0 40 -3 9 -5 -1 -4 -23z"/>
<path d="M497 1401 c6 -7 9 -21 6 -30 -4 -13 -3 -13 5 -2 8 11 10 11 15 0 3
-8 5 0 5 16 0 17 -2 24 -5 17 -4 -10 -8 -10 -21 0 -14 10 -15 10 -5 -1z"/>
<path d="M282 1381 c-11 -7 -11 -9 2 -14 10 -4 16 -1 16 8 0 17 -1 17 -18 6z"/>
<path d="M1021 1346 c-9 -11 -9 -16 0 -21 10 -7 28 10 29 28 0 12 -17 8 -29
-7z"/>
<path d="M285 1340 c6 -10 2 -12 -16 -7 -22 6 -23 5 -6 -8 32 -23 67 -78 67
-103 0 -13 4 -20 10 -17 14 9 12 37 -6 76 -25 55 -30 63 -44 67 -8 3 -10 0 -5
-8z"/>
<path d="M506 1320 c8 -43 14 -51 14 -19 0 13 -5 31 -10 39 -7 11 -8 5 -4 -20z"/>
<path d="M2490 1346 c0 -2 7 -7 16 -10 8 -3 12 -2 9 4 -6 10 -25 14 -25 6z"/>
<path d="M2255 1329 c-4 -6 -5 -12 -2 -15 2 -3 7 2 10 11 7 17 1 20 -8 4z"/>
<path d="M480 1305 c1 -26 2 -28 11 -12 8 14 8 22 0 30 -8 8 -11 3 -11 -18z"/>
<path d="M532 1300 c0 -19 2 -27 5 -17 2 9 2 25 0 35 -3 9 -5 1 -5 -18z"/>
<path d="M2500 1304 c-32 -17 -38 -24 -23 -24 12 0 35 11 50 25 34 29 31 29
-27 -1z"/>
<path d="M2471 1232 c-28 -26 -51 -53 -51 -60 0 -7 17 5 38 26 88 90 97 113
13 34z"/>
<path d="M517 1258 c4 -7 7 -22 6 -33 -2 -11 0 -14 3 -7 3 6 10 10 15 6 15 -9
10 13 -7 30 -19 19 -28 21 -17 4z"/>
<path d="M491 1255 c0 -5 8 -41 19 -80 11 -38 18 -54 15 -34 -6 39 -33 130
-34 114z"/>
<path d="M290 1234 c0 -5 7 -18 15 -28 23 -30 19 -92 -7 -118 l-21 -21 35 6
34 5 -3 -106 c-5 -121 9 -164 60 -192 26 -14 29 -14 42 4 8 10 12 23 9 28 -3
5 -12 1 -19 -9 -11 -14 -16 -15 -26 -6 -9 9 -8 17 4 37 16 23 16 25 -4 31 -15
5 -18 12 -14 28 5 17 4 18 -4 8 -7 -11 -11 -5 -14 25 -3 37 -4 36 -5 -10 -1
-27 -5 -47 -8 -43 -9 9 -12 297 -3 297 5 0 6 6 3 14 -3 8 -11 12 -19 10 -7 -3
-22 7 -34 22 -11 15 -21 23 -21 18z"/>
<path d="M1025 1169 c-81 -65 -146 -99 -166 -88 -22 11 -109 12 -127 0 -7 -4
12 -6 42 -3 66 5 99 -3 76 -19 -12 -9 -12 -10 3 -5 19 6 24 -10 5 -17 -9 -4
-8 -6 2 -6 8 -1 20 8 25 20 6 11 30 32 54 46 l44 26 -16 -24 c-20 -27 -22 -49
-5 -49 6 0 8 3 5 6 -9 9 29 60 81 112 55 53 43 53 -23 1z"/>
<path d="M540 1185 c-11 -13 -10 -14 4 -9 9 3 16 10 16 15 0 13 -6 11 -20 -6z"/>
<path d="M1550 1160 c-11 -16 -25 -42 -31 -59 -10 -28 -32 -41 -74 -41 -16 0
-17 2 -5 10 27 17 1 23 -32 7 l-32 -15 38 -8 c22 -4 54 -2 74 4 24 8 41 8 54
1 11 -6 24 -8 31 -5 7 2 5 5 -5 5 -24 1 -32 19 -17 37 10 12 9 13 -6 8 -15 -6
-15 -3 4 34 11 22 26 42 33 45 9 4 9 6 1 6 -6 1 -21 -12 -33 -29z"/>
<path d="M1030 1113 c-30 -31 -47 -50 -37 -43 16 12 20 12 28 -2 8 -14 29 -16
142 -16 72 1 138 5 145 11 8 6 17 5 27 -3 8 -6 20 -10 27 -7 8 4 7 6 -4 6 -24
1 -23 22 3 65 12 21 16 36 10 36 -6 0 -19 -16 -28 -35 -9 -19 -23 -35 -30 -35
-7 0 -12 -5 -10 -11 1 -6 -4 -14 -12 -17 -8 -3 -11 0 -7 7 9 14 3 14 -46 -1
-31 -9 -41 -9 -47 1 -7 10 -21 10 -69 1 -98 -20 -112 0 -49 68 53 56 15 34
-43 -25z"/>
<path d="M547 1140 c6 -7 9 -18 6 -26 -2 -7 2 -23 11 -36 9 -12 16 -32 16 -43
0 -12 5 -26 11 -32 6 -6 9 -17 6 -25 -4 -13 -21 20 -48 90 -6 18 -13 31 -15
29 -10 -10 83 -218 108 -242 6 -5 5 1 -2 13 -6 13 -9 26 -6 29 7 8 27 -7 21
-16 -2 -5 5 -17 16 -27 12 -10 27 -32 34 -49 l13 -30 -1 29 c-1 17 -10 34 -24
43 -13 9 -23 23 -23 33 0 10 -7 20 -15 24 -8 3 -15 16 -16 28 -1 22 -1 22 -8
-2 l-7 -25 -12 23 c-10 17 -10 27 -1 43 9 17 8 31 -1 60 -7 22 -16 39 -20 39
-4 0 -8 6 -7 13 1 34 -5 47 -25 58 -18 9 -21 9 -11 -1z m33 -53 c0 -5 -4 -5
-10 -2 -5 3 -10 14 -10 23 0 15 2 15 10 2 5 -8 10 -19 10 -23z m30 -80 c0 -5
-4 -5 -10 -2 -5 3 -10 14 -10 23 0 15 2 15 10 2 5 -8 10 -19 10 -23z"/>
<path d="M275 1130 c4 -6 1 -18 -7 -27 -11 -15 -11 -16 5 -10 10 4 21 7 23 7
2 0 4 9 4 20 0 11 -7 20 -16 20 -8 0 -12 -5 -9 -10z"/>
<path d="M2440 1105 c0 -16 7 -37 17 -47 9 -10 11 -18 6 -18 -6 0 -16 7 -23
15 -16 19 -30 19 -30 1 0 -12 41 -26 78 -26 12 0 13 3 4 12 -9 9 -8 14 3 22
11 8 12 15 4 26 -9 13 -10 12 -5 -2 3 -12 0 -18 -9 -18 -8 0 -18 0 -22 0 -5 0
-8 11 -8 25 -1 34 -15 44 -15 10z"/>
<path d="M1611 1075 l-23 -13 28 -5 c16 -3 61 -6 99 -5 54 0 64 3 46 10 -14 5
-45 6 -70 3 -25 -3 -40 -2 -33 1 18 8 15 24 -5 23 -10 -1 -29 -7 -42 -14z"/>
<path d="M1967 1076 c-16 -12 -16 -14 -1 -20 8 -3 30 -5 47 -5 23 1 26 3 10 6
-14 3 -20 9 -16 19 7 18 -16 18 -40 0z"/>
<path d="M2185 1071 c-3 -5 -1 -12 5 -16 5 -3 10 1 10 9 0 18 -6 21 -15 7z"/>
<path d="M1800 1060 c8 -5 26 -10 40 -10 20 0 22 2 10 10 -8 5 -26 10 -40 10
-20 0 -22 -2 -10 -10z"/>
<path d="M1885 1060 c11 -5 29 -9 40 -9 17 -1 17 1 5 9 -8 5 -26 9 -40 9 -23
0 -23 -1 -5 -9z"/>
<path d="M718 1048 c6 -6 18 -8 28 -6 14 3 12 5 -9 10 -19 3 -25 2 -19 -4z"/>
<path d="M793 1043 c9 -2 23 -2 30 0 6 3 -1 5 -18 5 -16 0 -22 -2 -12 -5z"/>
<path d="M765 889 c-4 -5 0 -18 9 -28 9 -10 13 -21 9 -24 -3 -4 -1 -7 5 -7 22
0 22 19 0 41 -18 17 -19 21 -5 16 11 -4 16 -3 12 3 -8 13 -22 13 -30 -1z"/>
<path d="M910 865 c0 -19 4 -35 8 -35 5 0 8 16 8 35 -1 46 -16 46 -16 0z"/>
<path d="M1023 889 c14 -8 17 -18 12 -36 -4 -16 -2 -22 5 -18 16 10 12 52 -6
59 -25 9 -31 6 -11 -5z"/>
<path d="M1080 883 c0 -11 8 -23 18 -27 9 -3 23 -9 30 -12 8 -4 12 4 11 28 -1
25 -3 27 -6 10 l-5 -24 -24 23 c-24 22 -24 22 -24 2z"/>
<path d="M1210 866 c0 -20 4 -36 8 -36 5 0 7 14 4 30 -3 22 0 30 11 30 10 0
17 -11 19 -32 3 -28 5 -30 13 -14 11 24 -5 50 -34 54 -18 3 -21 -1 -21 -32z"/>
<path d="M1294 865 c1 -22 6 -35 14 -35 7 0 10 5 6 11 -3 6 0 15 7 20 10 6 11
9 2 9 -7 0 -13 5 -13 11 0 6 9 8 21 4 15 -5 19 -4 15 4 -4 6 -17 11 -30 11
-19 0 -22 -5 -22 -35z"/>
<path d="M1416 887 c-28 -20 -13 -57 22 -56 25 2 25 2 4 6 -17 3 -22 10 -20
26 2 14 10 21 21 21 9 -1 17 2 17 7 0 13 -24 11 -44 -4z"/>
<path d="M1502 888 c-14 -14 -16 -48 -4 -48 5 0 8 10 8 22 -1 14 6 24 17 26
13 3 17 -3 17 -22 0 -14 5 -26 10 -26 6 0 10 8 10 18 0 20 -18 42 -35 42 -6 0
-16 -5 -23 -12z"/>
<path d="M1593 865 c0 -22 2 -30 4 -17 2 12 2 30 0 40 -3 9 -5 -1 -4 -23z"/>
<path d="M1634 865 c1 -40 6 -43 24 -15 7 12 8 20 2 20 -5 0 -10 5 -10 11 0 6
7 9 15 5 8 -3 15 -1 15 4 0 6 -10 10 -23 10 -20 0 -23 -5 -23 -35z"/>
<path d="M1707 893 c-11 -10 -8 -63 3 -63 6 0 10 7 10 15 0 8 6 15 13 15 8 0
7 4 -3 10 -13 9 -13 11 0 20 13 8 13 10 -1 10 -9 0 -19 -3 -22 -7z"/>
<path d="M1770 881 c0 -24 10 -51 19 -51 4 0 5 16 3 35 -4 37 -22 49 -22 16z"/>
<path d="M1822 875 c0 -16 2 -22 5 -12 2 9 2 23 0 30 -3 6 -5 -1 -5 -18z"/>
<path d="M1867 894 c-11 -11 -8 -64 3 -64 6 0 10 5 10 12 0 9 3 9 12 0 17 -17
33 -15 18 3 -6 8 -9 19 -6 24 4 5 2 12 -4 16 -5 3 -10 0 -11 -7 0 -7 -4 -5 -8
5 -3 10 -10 15 -14 11z"/>
<path d="M1940 865 c0 -25 4 -35 16 -35 8 0 12 5 8 11 -3 6 0 15 7 20 10 6 11
9 2 9 -7 0 -13 5 -13 11 0 6 7 8 16 5 8 -3 12 -2 9 4 -3 6 -15 10 -26 10 -15
0 -19 -7 -19 -35z"/>
<path d="M840 869 c-6 -11 -9 -25 -6 -32 3 -9 5 -9 5 1 1 14 31 17 31 2 0 -5
4 -10 9 -10 5 0 4 14 -2 30 -13 35 -22 38 -37 9z"/>
<path d="M987 883 c-11 -10 -8 -43 3 -43 6 0 10 11 10 25 0 26 -2 29 -13 18z"/>
<path d="M682 792 c105 -152 328 -327 453 -356 17 -4 39 -10 49 -13 15 -4 18
-2 13 11 -5 12 -3 15 6 10 6 -4 3 2 -7 14 -20 23 -32 30 -21 12 3 -5 4 -14 1
-19 -7 -11 -76 8 -76 21 0 4 -11 8 -24 8 -19 0 -22 4 -19 24 3 15 -1 25 -11
29 -19 7 -20 3 -6 -24 11 -20 4 -24 -24 -13 -9 3 -13 10 -10 15 7 12 -5 49
-16 49 -4 0 -6 -9 -3 -20 3 -12 0 -20 -6 -20 -7 0 -9 5 -6 10 3 6 -3 10 -14
10 -22 0 -29 16 -11 22 6 2 4 11 -5 23 -14 16 -16 17 -11 3 11 -36 -14 -26
-78 28 -53 46 -65 61 -61 78 4 12 3 16 -2 9 -6 -8 -15 -4 -33 15 -22 22 -22
25 -5 18 15 -5 17 -4 8 5 -6 6 -9 17 -7 24 3 7 1 16 -5 20 -7 3 -11 -2 -11
-14 0 -12 -5 -21 -10 -21 -12 0 -51 61 -45 71 3 4 -4 9 -15 12 -17 4 -15 -2
12 -41z"/>
<path d="M2055 821 c-3 -5 -2 -12 3 -15 5 -3 9 1 9 9 0 17 -3 19 -12 6z"/>
<path d="M469 800 c-2 -13 -15 -31 -29 -38 -23 -12 -21 -13 22 -7 45 6 47 5
61 -27 24 -54 27 -67 14 -62 -7 2 -23 -5 -35 -16 -23 -22 -29 -40 -12 -40 6 0
10 6 10 14 0 19 16 28 49 31 48 3 49 4 43 27 -3 12 -7 17 -10 10 -6 -20 -22
-14 -22 8 0 12 -12 32 -26 45 -15 14 -22 25 -15 25 8 0 8 5 -1 19 -9 14 -16
17 -24 10 -9 -7 -14 -5 -16 8 -4 14 -6 12 -9 -7z"/>
<path d="M2290 770 c-25 -16 4 -36 32 -22 17 8 19 11 6 11 -9 1 -18 5 -20 11
-2 6 -9 6 -18 0z"/>
<path d="M2266 735 c7 -18 6 -19 -12 -5 -18 14 -18 14 -5 -3 8 -10 20 -16 26
-13 7 2 16 1 21 -4 5 -5 15 -2 22 6 11 12 9 14 -11 14 -12 0 -29 6 -36 13 -10
10 -11 8 -5 -8z"/>
<path d="M464 716 c-11 -6 -19 -17 -17 -23 6 -16 38 0 47 22 6 17 -1 18 -30 1z"/>
<path d="M2239 702 c10 -19 9 -22 -9 -22 -27 0 -25 -11 5 -33 30 -21 53 -14
33 11 -10 12 -10 14 0 8 7 -4 19 0 28 8 14 15 14 16 -1 16 -8 0 -27 8 -42 17
-26 17 -26 17 -14 -5z"/>
<path d="M474 675 c-22 -19 -25 -24 -11 -25 9 0 17 5 17 10 0 6 10 14 22 19
12 4 17 10 12 14 -6 3 -23 -5 -40 -18z"/>
<path d="M816 689 c5 -8 9 -18 9 -24 0 -5 10 -14 22 -20 12 -6 32 -22 43 -36
l22 -24 -14 25 c-8 14 -24 29 -36 35 -12 5 -22 18 -24 29 -2 11 -9 21 -17 24
-10 3 -11 0 -5 -9z"/>
<path d="M1945 680 c3 -5 8 -10 11 -10 2 0 4 5 4 10 0 6 -5 10 -11 10 -5 0 -7
-4 -4 -10z"/>
<path d="M2194 653 c5 -9 0 -13 -16 -14 -23 0 -23 0 -2 -9 12 -5 25 -13 29
-19 3 -6 16 -11 28 -11 16 0 18 3 9 9 -8 4 -12 12 -10 16 1 4 -8 15 -22 24
-14 9 -21 11 -16 4z"/>
<path d="M532 628 c-36 -36 14 -127 91 -168 26 -14 47 -28 47 -32 0 -3 10 -4
23 -2 13 3 16 1 7 -3 -10 -4 3 -12 40 -24 37 -11 59 -14 67 -7 7 5 18 6 24 2
9 -5 7 -10 -7 -15 -15 -6 -11 -8 14 -8 32 -1 99 -37 88 -48 -2 -3 -18 5 -34
17 -41 30 -96 25 -99 -10 -1 -14 0 -18 3 -7 6 20 34 23 34 4 0 -7 -5 -18 -12
-25 -9 -9 -8 -12 4 -12 8 0 21 7 28 15 21 26 46 17 106 -37 62 -57 61 -47 -8
55 -36 53 -40 73 -8 45 12 -11 12 -10 0 5 -7 10 -19 16 -27 13 -8 -3 -24 1
-36 8 -12 8 -61 25 -109 37 -48 12 -85 25 -82 30 3 5 -2 6 -10 3 -18 -7 -86
32 -86 48 0 6 8 4 18 -4 20 -18 62 -41 62 -34 0 6 -73 51 -82 51 -4 0 -13 6
-20 13 -7 7 -8 13 -3 12 51 -10 58 16 16 60 -32 34 -33 34 -49 18z m34 -19
c10 -17 -13 -36 -27 -22 -12 12 -4 33 11 33 5 0 12 -5 16 -11z"/>
<path d="M1875 610 c-3 -5 -1 -10 4 -10 6 0 11 5 11 10 0 6 -2 10 -4 10 -3 0
-8 -4 -11 -10z"/>
<path d="M2175 594 c0 -13 5 -23 10 -21 15 5 18 34 3 39 -8 4 -13 -3 -13 -18z"/>
<path d="M1775 539 c-11 -16 -1 -19 13 -3 7 8 8 14 3 14 -5 0 -13 -5 -16 -11z"/>
<path d="M1720 505 c-14 -16 -3 -20 19 -6 8 5 9 11 3 15 -5 3 -15 -1 -22 -9z"/>
<path d="M1113 480 c14 -11 28 -20 31 -20 3 0 -2 9 -11 20 -10 11 -24 20 -32
20 -8 0 -3 -8 12 -20z"/>
<path d="M1643 470 c-13 -5 -23 -12 -23 -15 0 -10 27 -5 46 10 21 16 11 18
-23 5z"/>
<path d="M2144 438 l-19 -23 23 19 c21 18 27 26 19 26 -2 0 -12 -10 -23 -22z"/>
<path d="M1239 433 c0 -11 -3 -13 -6 -5 -2 6 -9 10 -14 6 -14 -8 0 -24 22 -24
10 0 19 6 19 14 0 22 -20 30 -21 9z"/>
<path d="M1294 432 c4 -7 1 -12 -8 -12 -9 0 -16 -4 -16 -10 0 -6 26 -10 58
-10 45 1 53 3 39 11 -10 6 -30 8 -44 5 -15 -4 -22 -3 -19 3 4 5 1 13 -5 17 -8
4 -9 3 -5 -4z"/>
<path d="M1444 431 c4 -6 -3 -15 -16 -20 -20 -8 -17 -10 20 -10 23 -1 42 1 42
3 0 2 -12 11 -26 21 -15 9 -23 12 -20 6z"/>
<path d="M1526 428 c5 -8 2 -9 -9 -5 -10 3 -17 2 -17 -3 0 -11 11 -13 34 -4
16 6 12 24 -5 24 -6 0 -7 -5 -3 -12z"/>
<path d="M2060 398 c-30 -11 -94 -25 -142 -32 -48 -7 -98 -21 -112 -30 -14 -8
-31 -14 -38 -13 -7 2 -10 2 -5 0 4 -3 7 -9 7 -14 0 -6 -4 -8 -9 -5 -14 9 -40
-4 -35 -17 5 -14 -22 -64 -56 -104 -39 -44 -49 -46 -29 -5 21 45 28 81 14 82
-5 0 -10 -8 -11 -17 -3 -54 -63 -123 -107 -123 -19 0 -17 3 10 16 30 15 49 41
38 52 -3 3 -5 0 -5 -6 0 -6 -13 -18 -30 -27 -33 -17 -74 -20 -65 -5 3 6 17 10
30 10 13 0 26 8 30 18 5 14 4 15 -6 5 -24 -24 -40 -16 -28 13 8 22 7 25 -4 16
-10 -9 -18 -8 -33 2 -10 8 -15 18 -11 22 4 5 12 2 17 -6 7 -11 9 -9 7 9 -1 15
-15 32 -39 47 -40 26 -53 30 -43 15 3 -5 1 -12 -5 -16 -6 -3 -13 1 -16 9 -3 9
-13 16 -21 16 -8 0 -11 5 -8 10 3 6 2 10 -4 10 -17 0 -61 -23 -61 -32 0 -4 -9
-8 -21 -8 -11 0 -17 -5 -14 -10 3 -6 -1 -13 -9 -16 -9 -3 -16 -14 -16 -23 0
-10 3 -12 8 -5 10 15 158 12 174 -4 10 -10 6 -11 -20 -8 -17 2 -29 -1 -26 -5
3 -5 -7 -9 -23 -9 -15 0 -35 -4 -43 -9 -8 -6 -18 -7 -23 -4 -5 3 -4 9 3 13 7
5 -1 7 -18 6 -17 -1 -37 -7 -44 -14 -16 -16 -33 -15 -52 3 -15 16 -11 49 5 39
5 -3 9 0 9 5 0 6 -11 11 -25 11 -35 0 -34 -41 3 -71 l27 -21 -25 7 c-38 11
-52 35 -46 78 6 35 5 37 -12 28 -13 -7 -22 -7 -30 1 -9 9 -12 9 -12 1 0 -7 4
-14 9 -17 5 -3 14 -19 19 -36 9 -24 8 -30 -3 -30 -17 0 -47 53 -44 78 3 34 -1
44 -16 39 -8 -4 -17 -2 -20 3 -4 6 -11 10 -16 10 -6 0 1 -15 14 -32 39 -53 43
-62 23 -55 -14 5 -15 3 -6 -12 34 -64 148 -123 202 -105 13 4 34 8 48 8 20 1
26 7 28 29 3 23 8 27 35 26 29 0 30 -1 11 -10 -11 -6 -29 -24 -39 -41 -16 -29
-17 -31 -1 -25 9 4 25 1 36 -5 14 -9 22 -9 32 0 11 9 17 9 26 0 8 -8 15 -8 25
0 10 8 24 9 48 2 38 -11 124 2 173 27 15 8 64 48 109 90 68 64 84 74 108 71
16 -3 29 0 29 5 0 5 7 4 15 -3 10 -8 12 -17 6 -24 -6 -7 -6 -17 -1 -26 7 -12
11 -7 16 18 4 17 11 32 16 32 5 0 7 13 3 30 -5 24 -3 30 11 30 27 0 153 40
159 50 3 6 5 9 3 9 -2 -1 -28 -10 -58 -21z m-139 -58 c10 -6 19 -16 19 -22 0
-9 -3 -9 -12 0 -32 32 -107 5 -162 -60 -40 -47 -48 -39 -13 13 22 34 96 79
130 79 10 0 27 -5 38 -10z m-486 -60 c3 -5 -1 -10 -10 -10 -9 0 -13 5 -10 10
3 6 8 10 10 10 2 0 7 -4 10 -10z m32 -103 c-2 -6 -9 -13 -17 -15 -9 -3 -11 1
-7 14 7 18 6 18 -8 0 -15 -20 -15 -20 -15 0 0 12 3 24 6 27 10 10 46 -13 41
-26z m-225 4 c-24 -20 -18 -38 6 -18 13 10 14 9 10 -3 -6 -20 -34 -24 -52 -8
-12 11 -12 15 1 31 9 9 25 17 36 17 20 0 20 0 -1 -19z m113 -31 c-3 -5 -10
-10 -16 -10 -5 0 -9 5 -9 10 0 6 7 10 16 10 8 0 12 -4 9 -10z"/>
<path d="M1350 378 c0 -4 14 -8 30 -8 17 0 30 2 30 4 0 2 -13 6 -30 8 -16 3
-30 1 -30 -4z"/>
<path d="M1577 233 c-3 -5 -2 -15 2 -22 7 -10 10 -10 16 -1 4 6 3 16 -3 22 -5
5 -12 6 -15 1z"/>
</g>
</svg>
