<?xml version="1.0" standalone="no"?>
<!DOCTYPE svg PUBLIC "-//W3C//DTD SVG 20010904//EN"
 "http://www.w3.org/TR/2001/REC-SVG-20010904/DTD/svg10.dtd">
<svg version="1.0" xmlns="http://www.w3.org/2000/svg"
 width="758.000000pt" height="903.000000pt" viewBox="-100 -100 908.000000 903.000000"
 preserveAspectRatio="xMidYMid meet">

<g transform="translate(0.000000,903.000000) scale(0.100000,-0.100000)"
fill="#000000" stroke="none">
<path d="M2313 9004 c-9 -25 3 -101 24 -143 19 -37 16 -61 -8 -61 -8 0 -20 35
-23 65 -1 18 -82 135 -92 135 -16 0 54 -169 84 -202 13 -16 13 -18 0 -18 -17
0 -48 31 -48 48 0 7 -7 12 -15 12 -8 0 -29 14 -47 30 -17 17 -35 30 -39 30 -5
0 -14 -20 -20 -45 -6 -25 -15 -45 -19 -45 -4 0 -34 30 -66 67 -55 62 -59 65
-64 42 -4 -15 -2 -25 6 -27 7 -2 16 -11 19 -21 3 -10 14 -26 25 -36 11 -10 20
-26 20 -37 0 -14 -8 -18 -39 -18 -22 0 -43 5 -46 10 -3 6 -18 10 -33 10 -15 0
-34 4 -42 10 -9 5 -17 5 -20 0 -4 -6 -38 -6 -91 2 -46 6 -95 11 -109 12 -14 0
-30 7 -36 15 -8 10 -15 11 -32 2 -16 -8 -27 -8 -46 0 -22 10 -31 8 -64 -14
-21 -15 -45 -27 -53 -27 -7 0 -20 -4 -28 -9 -12 -8 -12 -12 -2 -25 13 -15 12
-42 -3 -78 -6 -14 3 -17 71 -24 77 -7 81 -22 5 -23 -27 -1 -44 -13 -100 -72
-37 -39 -70 -80 -74 -90 -4 -11 -14 -19 -23 -19 -9 0 -18 -7 -22 -15 -3 -9
-18 -22 -34 -31 -16 -8 -29 -21 -29 -28 0 -14 -114 -155 -149 -186 -10 -8 -30
-38 -46 -65 -16 -28 -39 -63 -52 -79 -13 -15 -30 -43 -37 -61 -8 -18 -23 -36
-34 -39 -10 -4 -27 -25 -37 -49 -45 -111 -92 -188 -117 -195 -19 -5 -58 -77
-58 -107 0 -7 -12 -28 -27 -45 -14 -18 -29 -48 -33 -69 -4 -25 -11 -36 -22
-35 -12 1 -23 -17 -38 -60 -12 -33 -28 -74 -36 -89 -8 -16 -12 -33 -8 -38 3
-5 -1 -9 -8 -9 -17 -1 -74 -120 -88 -183 -6 -27 -23 -74 -39 -105 -15 -31 -40
-97 -55 -147 -15 -49 -31 -99 -36 -110 -4 -11 -16 -47 -25 -80 -10 -33 -22
-70 -26 -83 -5 -13 -9 -31 -9 -40 0 -9 -7 -30 -15 -45 -8 -16 -14 -45 -13 -65
0 -20 -6 -55 -15 -77 -9 -22 -16 -57 -17 -78 0 -21 -5 -47 -11 -58 -24 -46
-55 -204 -65 -334 -3 -33 -9 -69 -13 -80 -8 -18 -15 -69 -40 -305 -5 -46 -8
-87 -5 -91 2 -4 -1 -56 -7 -115 -13 -128 -12 -254 3 -271 7 -9 7 -18 -2 -28
-10 -12 -12 -62 -7 -223 4 -114 11 -234 17 -267 5 -33 10 -94 10 -136 0 -51 5
-87 17 -110 11 -22 19 -67 21 -124 3 -64 10 -102 25 -130 11 -23 23 -75 28
-121 5 -45 17 -106 28 -135 22 -62 41 -147 41 -188 0 -15 14 -48 30 -74 19
-31 30 -61 30 -85 0 -50 24 -134 49 -175 11 -18 28 -64 36 -102 18 -76 36
-116 71 -158 15 -18 24 -41 24 -63 0 -43 26 -112 55 -144 30 -33 41 -57 49
-104 8 -39 21 -61 82 -134 22 -26 31 -48 32 -76 1 -21 8 -48 17 -60 8 -12 26
-37 39 -57 13 -19 36 -43 50 -52 21 -14 26 -25 26 -60 0 -37 7 -48 49 -92 27
-27 61 -58 75 -68 19 -13 25 -24 21 -37 -12 -38 8 -70 82 -131 71 -59 74 -63
68 -95 -5 -31 -2 -36 33 -61 22 -16 45 -40 51 -55 17 -39 27 -35 50 17 22 50
26 52 47 30 22 -21 68 -19 89 5 29 33 56 24 115 -35 47 -48 59 -55 93 -55 21
0 50 -6 65 -14 18 -9 68 -15 142 -17 103 -2 120 -6 165 -30 28 -15 69 -33 93
-40 23 -7 42 -15 42 -18 0 -3 -22 -28 -49 -56 -27 -27 -67 -68 -89 -91 -64
-66 -207 -134 -282 -134 -13 0 -20 -5 -17 -12 3 -9 25 -13 68 -11 69 1 69 1
-23 -36 -44 -17 -35 -35 13 -27 124 20 206 72 381 240 36 35 53 45 58 36 5 -9
20 -11 44 -7 38 6 43 -1 25 -34 -7 -15 -7 -24 1 -34 13 -16 3 -40 -29 -69 -20
-18 -22 -18 -40 -2 -18 17 -22 14 -110 -77 -88 -91 -112 -108 -174 -121 -27
-6 -57 -49 -44 -63 9 -9 114 24 153 48 36 22 44 23 44 9 0 -13 -113 -96 -172
-126 -53 -27 -63 -57 -30 -87 17 -15 18 -15 17 11 0 22 5 28 28 30 15 2 27 9
27 16 0 7 6 21 14 31 11 15 17 17 28 8 11 -9 16 -8 25 6 6 10 25 21 41 24 28
6 174 130 196 166 14 24 137 171 143 171 2 0 11 -7 19 -15 28 -27 51 -19 56
20 2 22 -1 36 -9 39 -7 3 -13 10 -13 16 0 15 47 12 64 -5 8 -8 19 -15 25 -15
18 0 12 -29 -11 -52 l-21 -21 21 -8 c26 -10 28 -31 7 -49 -21 -17 -19 -27 7
-33 13 -4 29 0 38 8 25 22 30 19 30 -20 0 -24 5 -35 15 -35 20 0 19 -17 -2
-29 -38 -22 -43 -28 -37 -44 8 -22 26 -21 57 3 14 11 32 20 41 20 9 0 16 8 16
20 0 22 28 40 64 40 31 0 39 -12 27 -43 -7 -19 -6 -37 6 -66 14 -35 14 -48 2
-100 -11 -49 -15 -58 -27 -49 -9 8 -12 23 -8 42 3 17 2 37 -3 44 -19 31 -50
-281 -37 -370 4 -25 20 -66 37 -91 39 -59 187 -184 240 -202 47 -17 159 -20
159 -5 0 5 -21 21 -47 34 -27 13 -66 43 -88 65 -21 23 -45 41 -52 41 -7 0 -13
8 -13 18 0 9 -13 28 -30 42 -27 23 -31 33 -39 110 -6 52 -6 89 0 94 15 16 10
26 -11 26 -19 0 -20 7 -20 109 0 76 4 118 14 138 8 15 17 36 20 46 7 23 37 22
43 -2 3 -12 11 -17 20 -14 13 5 14 -4 9 -58 -8 -77 7 -105 48 -95 19 5 26 2
26 -8 0 -8 7 -19 16 -24 14 -8 14 -10 -1 -25 -9 -10 -22 -17 -29 -17 -8 0 -19
-7 -26 -15 -14 -17 -28 -11 -41 19 -6 14 -8 -13 -6 -84 2 -97 5 -110 36 -172
37 -75 103 -147 156 -172 75 -36 253 -29 297 11 10 9 21 13 24 10 11 -11 -15
-34 -68 -62 -41 -21 -61 -26 -111 -24 -36 2 -72 -2 -85 -10 -13 -7 -51 -15
-85 -19 -61 -7 -62 -8 -59 -36 2 -16 12 -41 23 -54 10 -14 19 -34 19 -46 0
-11 3 -31 6 -44 6 -22 6 -22 41 8 18 16 40 30 48 30 8 0 15 5 15 10 0 6 5 10
11 10 6 0 22 9 36 20 14 11 38 20 54 20 18 0 34 9 47 27 18 24 23 26 43 16 13
-6 32 -14 43 -17 15 -5 16 -9 6 -21 -10 -12 -10 -15 3 -15 8 0 17 -5 19 -12 3
-8 11 -5 23 10 16 18 26 21 57 16 27 -5 45 -2 63 10 36 23 77 17 92 -14 7 -14
22 -33 34 -43 23 -18 23 -18 37 18 14 34 18 36 45 31 23 -5 36 -1 53 15 27 25
67 20 110 -14 l27 -21 -7 36 c-5 30 -3 36 14 41 11 3 20 11 20 19 0 31 -26 49
-81 57 -59 8 -114 39 -124 71 -6 18 -9 18 -81 -8 l-75 -26 -101 23 c-98 22
-104 25 -143 68 -74 84 -88 128 -78 251 8 113 14 119 135 136 72 9 103 10 117
2 10 -6 37 -21 60 -34 31 -17 41 -28 41 -47 0 -21 -5 -25 -30 -25 -24 0 -35
-8 -56 -42 -52 -83 -60 -92 -100 -103 -33 -9 -40 -16 -48 -47 -12 -48 1 -63
67 -83 113 -33 197 -10 262 73 49 62 86 149 78 181 -7 28 8 27 35 -2 38 -40
23 -135 -19 -122 -15 5 -19 2 -19 -18 0 -14 -3 -38 -6 -56 -6 -26 -3 -32 18
-40 21 -8 24 -15 20 -40 -4 -26 0 -31 22 -37 34 -8 36 -6 40 49 2 31 11 56 30
77 15 19 26 44 26 61 0 43 28 95 43 80 14 -14 14 -116 0 -134 -6 -6 -13 -24
-15 -40 -5 -27 -4 -27 31 -21 59 10 118 40 138 70 10 15 29 39 41 52 23 22 24
28 17 101 l-7 79 37 41 c20 22 47 60 58 83 12 24 28 43 36 43 8 0 25 -20 38
-45 18 -34 23 -54 18 -80 -8 -46 -31 -80 -53 -80 -12 0 -28 -24 -51 -77 -19
-42 -51 -92 -71 -112 -100 -99 -139 -130 -174 -136 -20 -4 -36 -12 -36 -17 0
-27 156 23 216 68 24 19 48 34 54 34 12 0 -29 -92 -49 -107 -36 -28 -120 -62
-169 -69 -29 -3 -52 -11 -52 -16 0 -17 90 -50 117 -43 24 6 24 7 8 19 -29 21
0 30 37 12 39 -20 72 -20 87 -2 7 8 49 29 94 47 96 39 151 89 196 176 16 33
36 65 45 72 14 12 16 9 16 -27 0 -62 -30 -139 -73 -188 -49 -56 -163 -124
-246 -145 -62 -17 -101 -39 -71 -39 31 -1 129 -58 160 -94 30 -33 34 -35 50
-21 40 36 130 5 130 -45 0 -23 29 -27 48 -8 18 18 15 25 -19 37 -21 7 -30 16
-27 28 6 35 98 28 98 -7 0 -24 18 -36 33 -21 7 7 5 20 -9 46 -17 31 -17 37 -4
45 32 20 69 11 85 -21 11 -20 21 -29 31 -25 9 3 18 6 20 6 13 0 1 42 -18 60
-12 11 -18 23 -14 27 11 12 94 14 101 3 3 -5 -1 -10 -9 -10 -9 0 -16 -4 -16
-8 0 -10 57 -32 64 -24 13 12 5 47 -15 68 -30 32 -7 39 25 7 14 -14 26 -29 26
-33 0 -19 35 -19 55 0 18 17 30 19 63 14 32 -5 48 -2 75 15 34 21 72 28 79 14
5 -11 68 -43 68 -35 0 4 -9 24 -20 44 l-20 37 38 -1 c20 0 42 -5 49 -10 20
-16 28 91 9 136 -21 50 -20 66 2 66 10 0 24 6 31 13 10 10 16 8 28 -11 19 -27
61 -30 70 -4 3 9 20 29 36 44 27 25 32 26 56 14 14 -8 42 -17 61 -21 19 -4 45
-13 58 -21 21 -14 22 -13 22 11 0 14 5 25 10 25 6 0 10 -5 10 -10 0 -6 13 -5
33 3 28 12 32 18 32 53 0 37 2 39 30 39 23 0 31 -5 33 -22 4 -24 27 -31 35
-10 2 6 -2 25 -10 40 -20 40 -2 61 45 52 30 -6 37 -2 64 29 17 20 39 36 49 36
10 0 23 9 29 19 14 26 13 28 -9 34 -18 4 -19 9 -9 43 12 45 25 56 49 44 25
-14 32 27 18 106 -8 48 -8 69 0 77 8 8 14 8 23 -1 24 -24 38 -13 38 31 0 23 4
48 8 55 16 24 76 62 99 62 25 0 30 19 13 49 -13 26 14 61 47 61 15 0 35 8 46
17 18 17 19 17 28 0 11 -20 31 -23 28 -4 -1 6 0 19 3 27 3 8 11 40 18 70 7 30
18 66 25 80 24 50 43 120 32 120 -7 0 -7 4 1 12 17 17 15 28 -4 28 -19 0 -16
51 4 58 7 2 10 -2 6 -11 -3 -8 -1 -18 4 -21 5 -3 14 11 20 30 9 31 8 34 -6 30
-9 -3 -30 -8 -47 -12 l-30 -7 18 24 c27 37 47 86 47 114 0 27 -9 32 -28 13
-23 -23 -24 2 0 44 30 55 64 60 62 11 -2 -26 2 -33 17 -33 26 0 35 -26 15 -45
-20 -21 -20 -39 -1 -55 18 -15 16 -16 48 31 22 32 23 37 8 46 -13 9 -14 13 -3
24 18 19 15 29 -8 29 -27 0 -25 11 10 55 21 27 30 49 30 75 0 76 59 78 110 5
43 -63 62 -61 39 3 -7 22 -7 36 1 51 12 23 -1 63 -14 42 -9 -13 -56 -15 -56
-2 0 5 12 24 27 41 20 24 28 46 31 87 4 47 8 56 30 64 13 5 27 7 30 4 9 -9 71
132 67 152 -2 10 -6 35 -9 56 -5 35 -4 37 22 35 38 -3 46 4 81 66 32 56 32 57
0 143 -10 27 -2 53 17 53 8 0 11 -6 8 -15 -4 -8 -2 -15 2 -15 25 1 56 30 79
74 23 42 24 52 14 85 -6 20 -14 48 -19 63 -7 26 4 49 22 45 3 -1 10 1 14 6 4
4 1 7 -6 7 -11 0 -11 3 -2 12 8 8 15 8 26 -1 13 -11 19 -7 36 21 29 46 33 67
22 116 -12 53 -6 77 24 97 38 25 67 92 59 134 -16 80 -21 142 -12 148 5 3 13
0 17 -8 13 -19 34 3 59 61 19 44 20 55 10 97 -6 27 -18 58 -26 71 -19 31 -1
66 32 58 26 -7 37 4 55 56 12 31 11 40 -3 62 -9 14 -17 33 -17 43 0 10 -7 28
-15 41 -22 30 -4 62 34 62 24 0 31 6 40 31 9 26 7 42 -10 90 -13 35 -28 59
-36 59 -10 0 -12 6 -7 23 9 29 23 47 39 47 19 0 45 34 46 61 1 37 -27 104 -46
107 -27 6 -16 109 15 132 19 15 21 22 15 58 -4 23 -15 52 -26 66 -11 14 -19
40 -19 61 0 32 3 37 20 32 25 -6 40 19 40 65 -1 36 -30 128 -47 150 -20 24
-20 92 0 85 6 -2 20 0 30 5 29 15 21 72 -24 163 -31 63 -40 90 -35 110 6 22
11 26 30 21 25 -6 36 8 36 43 0 29 -49 143 -71 167 -13 14 -19 32 -17 50 3 25
7 29 33 29 28 0 30 2 28 37 -1 21 -9 48 -17 60 -8 13 -18 39 -21 60 -5 23 -13
38 -26 41 -25 7 -43 49 -35 81 5 19 13 26 31 26 22 0 25 4 25 39 0 21 -6 44
-13 50 -8 6 -19 29 -26 51 -6 22 -23 47 -36 56 -24 15 -45 61 -45 95 0 15 8
19 35 19 22 0 35 5 34 13 -2 44 -75 168 -94 161 -14 -6 -55 73 -55 106 0 24
24 42 45 33 13 -4 16 -3 11 5 -4 7 -2 12 3 12 17 0 13 17 -8 37 -10 10 -26 34
-36 53 -10 19 -38 53 -61 76 -53 48 -57 77 -14 99 33 17 37 27 15 45 -7 6 -28
36 -45 66 -16 30 -36 54 -43 54 -16 0 -49 35 -66 68 -15 29 0 52 35 52 29 0
31 13 6 38 -11 11 -33 40 -51 65 -18 26 -40 47 -50 47 -23 0 -85 86 -77 107 5
11 14 14 36 9 25 -4 30 -2 30 13 0 10 -13 32 -28 47 -16 16 -41 46 -57 67 -20
26 -31 35 -39 27 -16 -16 -22 -13 -60 39 -41 56 -44 71 -17 95 19 18 19 19
-20 70 -23 28 -55 57 -72 64 -96 42 -138 114 -70 120 l32 3 -62 59 c-35 33
-71 59 -83 60 -12 0 -41 21 -69 51 -45 48 -46 51 -30 69 17 18 16 21 -13 58
-17 21 -38 45 -47 52 -8 7 -15 21 -15 31 0 33 -22 33 -49 0 -14 -17 -29 -31
-32 -31 -4 0 -4 20 -2 44 8 65 -23 111 -87 130 -26 8 -83 35 -127 59 -43 25
-103 55 -133 67 -30 12 -59 25 -65 30 -10 8 -97 20 -150 19 -50 0 -209 -82
-270 -140 -54 -51 -83 -60 -55 -16 24 39 39 71 44 97 6 31 99 127 154 159 40
24 40 25 24 47 -22 30 -50 36 -76 18 -11 -7 -27 -14 -36 -14 -33 0 -124 -77
-192 -163 -39 -50 -71 -97 -71 -105 0 -8 -9 -17 -19 -20 -13 -3 -17 -10 -12
-24 3 -12 -1 -27 -11 -38 -14 -15 -15 -25 -6 -58 6 -21 23 -51 38 -66 l27 -27
24 31 c34 44 52 39 52 -14 0 -58 39 -108 179 -228 157 -136 207 -172 289 -213
40 -19 83 -47 95 -62 12 -14 41 -34 65 -44 43 -19 57 -35 22 -26 -20 5 -20 4
-3 -26 10 -16 35 -48 56 -71 20 -22 47 -60 60 -85 12 -25 45 -68 72 -95 28
-27 42 -46 32 -43 -15 6 -15 2 4 -36 25 -50 57 -87 76 -87 9 0 11 -8 7 -24 -6
-24 7 -47 101 -180 19 -26 35 -59 35 -72 0 -34 20 -71 47 -89 12 -9 23 -22 23
-30 0 -43 25 -119 50 -149 18 -24 32 -58 40 -102 8 -43 22 -76 39 -96 17 -21
22 -33 13 -36 -7 -2 -10 -8 -7 -13 4 -5 13 -34 21 -65 8 -31 23 -69 34 -84 11
-16 20 -43 20 -62 0 -49 26 -140 42 -149 9 -5 14 -29 16 -71 3 -88 10 -112 37
-136 21 -18 22 -24 13 -49 -16 -43 -2 -140 23 -153 21 -12 25 -40 8 -57 -19
-19 -2 -117 27 -148 28 -30 31 -60 7 -73 -22 -13 -11 -91 18 -131 20 -27 20
-30 5 -59 -23 -45 -21 -113 5 -146 20 -25 20 -28 5 -67 -22 -55 -21 -120 3
-151 26 -33 47 -116 33 -130 -7 -7 -16 0 -28 23 l-18 34 -7 -30 c-4 -16 -7
-49 -8 -72 -1 -36 1 -41 18 -36 16 4 22 -2 30 -34 17 -65 17 -103 1 -103 -6 0
-15 11 -20 24 -10 27 -26 40 -34 28 -3 -5 -8 -40 -12 -78 -7 -64 -6 -68 10
-55 15 12 19 12 33 -1 17 -18 24 -111 9 -117 -6 -2 -23 20 -38 49 -26 49 -28
51 -28 23 0 -17 -3 -58 -6 -92 -6 -57 -5 -61 13 -61 30 0 44 -22 50 -84 8 -73
-13 -76 -45 -6 -13 28 -27 48 -31 46 -5 -3 -11 -29 -14 -59 -4 -29 -9 -66 -13
-83 -5 -28 -4 -29 27 -29 28 0 34 -4 41 -33 13 -49 6 -107 -12 -107 -10 0 -16
13 -18 43 -2 29 -8 42 -18 42 -8 0 -18 10 -22 21 -7 17 -11 6 -21 -48 -14 -78
-10 -96 23 -111 18 -8 25 -22 30 -57 8 -48 0 -105 -14 -105 -12 0 -20 27 -20
66 0 24 -5 34 -15 34 -8 0 -15 8 -16 18 -1 30 -28 -42 -35 -96 -6 -50 -6 -52
22 -63 l29 -10 -42 -37 c-60 -53 -82 -149 -38 -166 24 -9 17 -23 -19 -40 -32
-15 -38 -25 -66 -114 -36 -111 -125 -328 -198 -482 -70 -149 -222 -414 -278
-488 -27 -34 -56 -75 -64 -91 -8 -16 -44 -61 -80 -100 -36 -40 -92 -102 -126
-139 -33 -37 -78 -92 -99 -122 -49 -70 -157 -190 -171 -190 -5 0 -20 -13 -32
-30 -13 -16 -27 -30 -32 -30 -23 0 -7 28 42 73 41 38 49 50 38 57 -12 8 -12
11 1 27 300 348 497 654 653 1008 126 286 192 505 276 907 99 482 126 755 116
1218 -8 405 -19 545 -62 790 -74 419 -180 788 -319 1110 -143 330 -236 488
-390 664 -63 73 -188 186 -206 186 -5 0 -21 -11 -35 -25 -34 -34 -49 -32 -23
4 13 18 19 36 15 49 -8 24 -100 74 -181 97 -84 24 -210 81 -269 121 -82 55
-83 39 -3 -25 130 -105 328 -322 440 -482 316 -455 489 -894 642 -1639 51
-251 73 -443 86 -756 18 -431 -6 -754 -91 -1184 -67 -344 -150 -618 -279 -923
-118 -277 -268 -548 -409 -737 -127 -171 -428 -449 -637 -589 -240 -160 -561
-294 -846 -351 -219 -44 -637 -53 -738 -16 -24 9 -73 21 -110 27 -36 5 -70 15
-76 21 -7 7 -1 9 21 5 174 -33 267 -39 464 -34 292 8 450 34 695 115 242 80
479 201 672 346 125 93 379 342 475 466 80 103 182 263 268 420 35 63 69 122
75 130 32 39 208 470 263 645 100 318 157 578 202 929 35 274 28 806 -16 1136
-67 515 -238 1116 -429 1515 -75 156 -229 406 -326 532 -98 125 -341 373 -449
459 -98 77 -267 191 -342 231 -33 17 -77 45 -98 62 -21 17 -48 31 -59 31 -27
0 -72 18 -85 34 -6 8 -35 17 -64 20 -65 8 -82 15 -82 31 0 17 4 16 -220 62
l-185 38 -260 0 c-164 0 -291 -5 -345 -13 -142 -22 -349 -70 -470 -109 -149
-48 -440 -195 -537 -271 -41 -31 -85 -64 -98 -73 -50 -32 -249 -227 -327 -319
-259 -308 -515 -797 -682 -1303 -95 -286 -173 -649 -233 -1077 -22 -161 -26
-771 -5 -920 45 -319 118 -714 152 -821 11 -34 20 -68 20 -76 0 -32 45 -163
56 -163 6 0 14 -7 18 -15 3 -8 1 -15 -4 -15 -6 0 -10 5 -10 12 0 6 -2 9 -5 7
-9 -9 18 -79 31 -79 6 0 17 -14 23 -32 12 -34 6 -52 -9 -28 -14 22 -12 7 5
-34 8 -20 19 -36 24 -36 13 0 34 -54 22 -58 -13 -4 -11 -7 67 -185 46 -104 69
-146 78 -143 8 3 14 1 14 -3 0 -5 -5 -11 -11 -13 -26 -9 173 -360 299 -526 32
-42 70 -93 84 -112 14 -19 63 -79 109 -132 124 -144 141 -167 135 -176 -3 -5
-28 -6 -56 -1 -83 13 -88 16 -86 51 0 18 -5 33 -12 36 -11 3 -12 0 -3 -16 9
-16 8 -24 -5 -36 -19 -19 -31 -20 -63 -3 -33 17 -32 31 3 32 16 0 31 6 33 13
3 8 -8 12 -39 12 -25 0 -56 8 -75 20 -33 20 -33 20 -33 0 0 -20 -1 -20 -34 -3
-40 21 -114 108 -244 286 -52 70 -96 127 -98 127 -22 0 152 -246 289 -408 159
-189 448 -430 675 -564 39 -24 72 -46 72 -50 0 -12 -4 -11 -81 37 -84 52 -98
55 -91 20 6 -36 -22 -44 -54 -15 -18 18 -24 34 -24 66 0 33 -5 46 -20 54 -25
13 -40 5 -40 -20 0 -53 -42 -29 -194 112 -54 51 -115 117 -134 147 -20 31 -51
72 -70 91 -19 19 -46 53 -60 75 -14 22 -55 76 -92 120 -297 356 -631 979 -778
1450 -37 118 -94 349 -113 454 -7 41 -15 69 -17 63 -2 -7 10 -79 27 -161 34
-162 35 -171 23 -171 -11 0 -42 89 -42 122 0 14 -9 55 -20 90 -11 34 -20 79
-20 98 0 19 -10 55 -21 80 -13 28 -21 65 -21 100 0 30 -7 78 -16 105 -14 42
-16 101 -15 375 0 179 1 339 2 355 1 17 -3 95 -10 174 -8 98 -8 154 -1 177 6
22 6 47 -1 77 -8 37 -7 55 8 99 10 29 19 83 21 119 1 40 8 80 19 100 9 19 21
69 25 113 5 43 15 86 23 95 8 9 18 43 22 76 4 33 15 79 25 101 10 23 21 66 25
95 4 30 16 74 27 97 11 24 23 69 28 99 5 31 18 72 28 92 11 20 25 61 31 91 7
30 21 70 31 88 11 18 20 42 20 52 0 31 31 113 50 135 10 11 25 48 33 83 8 34
26 79 40 100 13 20 32 61 42 90 9 29 27 65 40 80 13 16 33 52 44 81 37 98 75
131 84 74 2 -16 4 -3 4 27 0 60 33 139 73 175 12 11 32 43 45 70 12 28 40 66
61 86 22 19 46 51 54 70 8 19 36 57 62 85 26 27 51 59 55 71 7 18 88 95 110
104 15 7 73 105 73 123 0 12 5 16 15 12 23 -8 75 5 75 19 0 14 74 85 89 85 7
0 69 52 93 78 52 56 137 126 145 118 3 -3 -1 -14 -9 -23 -9 -10 -13 -24 -11
-30 3 -8 -5 -13 -21 -13 -15 0 -26 -6 -26 -13 0 -16 -68 -87 -84 -87 -6 -1
-25 -18 -43 -38 -17 -20 -53 -61 -80 -91 -46 -51 -48 -52 -54 -30 -6 22 -7 21
-8 -7 -1 -16 -8 -39 -16 -50 -8 -10 -15 -25 -15 -33 0 -16 112 86 122 111 8
20 41 31 68 23 27 -9 113 60 105 85 -3 9 2 23 10 30 25 21 62 91 69 131 8 46
40 80 104 113 46 23 182 149 182 168 0 4 -9 8 -20 8 -11 0 -20 7 -20 15 0 8 5
15 10 15 25 0 2 77 -40 136 -21 28 -49 38 -57 18z m3187 -94 c0 -5 -5 -10 -11
-10 -5 0 -7 5 -4 10 3 6 8 10 11 10 2 0 4 -4 4 -10z m-3935 -100 c3 -5 1 -10
-4 -10 -6 0 -11 5 -11 10 0 6 2 10 4 10 3 0 8 -4 11 -10z m-15 -50 c0 -5 -4
-10 -10 -10 -5 0 -10 5 -10 10 0 6 5 10 10 10 6 0 10 -4 10 -10z m490 -250 c0
-5 -7 -10 -16 -10 -8 0 -12 5 -9 10 3 6 10 10 16 10 5 0 9 -4 9 -10z m1194
-74 c3 -14 2 -36 -3 -49 -12 -31 -4 -40 21 -26 22 12 99 21 166 20 23 0 42 4
42 8 0 16 104 20 127 5 16 -10 29 -11 48 -4 36 14 122 13 131 -2 10 -17 -54
-71 -74 -63 -10 4 -19 7 -22 8 -3 1 -6 -2 -6 -8 -1 -5 17 -17 39 -25 52 -19
67 -59 37 -98 -12 -15 -20 -40 -20 -64 0 -31 -4 -41 -20 -45 -11 -3 -20 -11
-20 -18 0 -7 -5 -15 -12 -17 -6 -2 23 -14 64 -26 80 -23 126 -61 163 -132 15
-30 18 -31 34 -16 25 23 44 20 57 -9 10 -21 9 -24 -10 -28 -11 -2 -2 -5 20 -6
42 -1 72 18 60 38 -9 14 13 24 27 13 7 -6 23 -12 37 -14 19 -2 26 -10 28 -31
5 -38 -15 -59 -52 -57 -48 3 -53 1 -59 -20 -3 -11 -20 -28 -38 -37 -49 -27
-68 -49 -62 -72 8 -30 -14 -26 -31 7 -11 19 -15 22 -16 10 0 -34 -38 -60 -83
-58 -70 3 -76 1 -92 -30 -11 -20 -27 -32 -54 -40 -21 -6 -42 -17 -45 -25 -6
-18 -2 -18 63 -4 38 8 56 18 72 40 18 26 26 29 73 29 35 0 58 5 66 15 7 8 22
14 34 14 11 0 31 2 42 6 16 5 27 0 42 -19 11 -14 25 -26 31 -26 6 0 11 -8 11
-18 0 -23 19 -42 43 -42 39 0 120 33 125 52 2 10 9 18 16 19 6 0 1 4 -12 10
-29 11 -22 24 28 49 45 23 55 36 42 53 -11 14 -1 47 19 64 8 6 28 8 46 6 34
-5 57 -32 69 -77 6 -26 6 -26 -45 -21 -28 3 -51 2 -51 -3 0 -5 14 -18 30 -30
25 -19 30 -29 30 -67 0 -49 -35 -155 -52 -155 -6 0 -8 11 -6 25 7 36 -6 31
-28 -10 -15 -29 -16 -37 -6 -44 10 -6 5 -10 -16 -14 -23 -5 -33 -14 -41 -40
-7 -19 -28 -53 -47 -75 -38 -45 -39 -73 -5 -92 10 -5 24 -23 31 -40 l12 -30
39 35 c38 34 69 45 69 25 0 -5 -4 -10 -9 -10 -5 0 -16 -18 -25 -39 -13 -34
-20 -40 -48 -43 -30 -3 -44 -23 -15 -23 21 0 20 -63 -2 -99 -12 -18 -21 -40
-21 -48 0 -9 -9 -27 -20 -41 -11 -14 -20 -28 -20 -31 0 -3 20 -6 45 -6 35 0
51 6 78 30 56 49 67 33 17 -23 -37 -42 -37 -47 -4 -47 16 0 23 -4 18 -11 -3
-6 -1 -15 6 -19 21 -13 -38 -112 -75 -125 -16 -5 -34 -15 -38 -22 -4 -7 -25
-13 -45 -13 -33 -1 -35 -2 -17 -12 23 -14 206 -17 250 -5 l30 9 -33 -23 c-24
-15 -61 -25 -123 -33 -73 -9 -87 -14 -77 -24 10 -10 10 -15 -2 -22 -8 -5 -23
-10 -32 -10 -10 0 -18 -4 -18 -10 0 -15 70 -47 135 -60 33 -7 64 -15 70 -18
16 -10 -35 -20 -104 -21 -52 -1 -62 -4 -57 -16 8 -22 0 -19 -61 25 -31 22 -63
40 -71 40 -8 0 -31 19 -51 42 l-37 42 -13 -46 c-11 -39 -11 -50 3 -76 9 -17
16 -36 16 -43 0 -6 19 -53 43 -103 58 -122 73 -171 59 -189 -8 -10 -8 -24 -1
-52 8 -27 8 -45 0 -62 -15 -34 -14 -63 4 -63 8 0 17 -10 20 -23 6 -22 10 -23
61 -19 35 3 59 0 69 -8 8 -7 30 -20 47 -29 36 -18 63 -60 48 -75 -5 -5 -5 -16
0 -26 9 -16 4 -26 -44 -95 -16 -21 -17 -28 -6 -35 9 -6 5 -12 -18 -24 -41 -21
-52 -20 -52 5 0 21 -4 21 -72 17 -66 -5 -73 -4 -96 19 -23 23 -23 25 -7 50 12
18 13 24 3 21 -18 -6 -38 -47 -38 -78 0 -14 9 -33 20 -43 12 -10 18 -22 14
-28 -4 -6 0 -15 7 -20 11 -6 9 -14 -8 -37 -21 -28 -21 -29 -1 -41 12 -8 18
-19 15 -29 -28 -86 -43 -122 -64 -150 -14 -18 -22 -39 -19 -47 3 -8 -1 -18 -8
-22 -18 -11 -30 -69 -17 -78 14 -8 14 -62 0 -71 -20 -12 7 -27 29 -15 30 16
35 14 29 -11 -4 -12 -1 -29 6 -37 10 -12 8 -14 -10 -9 -15 4 -23 2 -23 -7 0
-7 -6 -15 -12 -17 -10 -4 -10 -10 0 -32 16 -36 15 -56 -2 -56 -12 0 -12 -4 0
-30 9 -16 19 -32 25 -35 14 -9 11 -41 -7 -56 -13 -10 -15 -36 -13 -149 1 -76
0 -141 -3 -146 -3 -5 -11 -26 -17 -46 -10 -30 -21 -42 -56 -57 -69 -31 -86
-89 -40 -143 14 -16 25 -24 25 -18 0 8 10 9 30 5 25 -5 35 -1 57 23 41 43 61
47 115 20 26 -13 48 -28 48 -35 0 -14 36 -27 51 -18 12 8 82 -20 118 -47 13
-10 33 -18 45 -18 20 -1 100 -39 83 -40 -4 0 7 -13 24 -28 17 -16 32 -37 33
-48 0 -12 11 -34 24 -50 61 -79 102 -139 102 -149 0 -6 -5 -16 -11 -22 -15
-15 -6 -27 36 -47 20 -10 33 -21 31 -25 -3 -4 4 -25 15 -46 11 -21 18 -46 16
-56 -3 -10 1 -23 8 -29 37 -31 72 -140 44 -140 -21 0 2 -19 31 -25 26 -6 29
-10 24 -33 -4 -19 -3 -23 4 -13 8 11 14 9 31 -8 25 -25 26 -31 5 -31 -12 0
-14 -7 -9 -33 13 -59 34 -89 57 -81 14 4 18 2 14 -5 -4 -6 -17 -11 -28 -11
-27 0 -58 -28 -58 -52 0 -24 -40 -78 -57 -78 -7 0 -19 -11 -25 -25 -6 -14 -16
-26 -22 -26 -6 -1 -21 -3 -33 -4 -13 -1 -28 -7 -35 -13 -8 -6 -54 -9 -113 -7
-55 1 -87 1 -72 -2 21 -3 31 -13 39 -34 9 -27 13 -29 42 -23 100 21 388 123
411 145 14 14 25 158 14 188 -6 14 -26 50 -46 80 -20 29 -43 74 -53 100 -38
100 -70 189 -86 244 -9 32 -42 99 -73 150 -31 51 -61 103 -67 117 -20 44 -129
184 -174 223 -33 28 -39 37 -24 37 27 0 153 -135 194 -209 58 -104 92 -144
136 -161 88 -32 194 -113 275 -206 19 -22 69 -119 69 -134 0 -23 -20 -7 -48
38 -16 26 -40 57 -53 70 -38 37 -158 128 -201 152 -36 20 -39 21 -30 4 17 -32
73 -79 169 -142 50 -34 95 -66 98 -72 13 -21 -5 -24 -40 -7 -44 21 -51 21 -35
2 27 -32 -16 -15 -72 30 -32 25 -58 41 -58 36 0 -18 53 -156 81 -213 30 -60
56 -80 36 -28 -24 65 22 50 106 -34 70 -70 114 -126 99 -126 -13 0 -92 36
-114 52 -25 18 -28 9 -19 -52 6 -47 18 -71 77 -153 128 -179 160 -245 100
-207 -61 39 -112 78 -143 108 l-33 33 0 -40 c0 -50 -23 -162 -47 -226 -19 -50
-43 -71 -43 -37 0 11 -7 22 -15 26 -19 7 -20 73 -3 197 6 49 9 92 5 95 -6 7
-148 -34 -157 -46 -3 -3 -17 -11 -32 -17 -25 -11 -28 -18 -28 -57 0 -56 -31
-137 -73 -189 -39 -50 -137 -199 -137 -209 0 -5 -7 -8 -15 -8 -16 0 -21 45 -7
54 5 3 9 19 10 36 1 58 59 198 119 292 9 15 14 30 11 33 -3 3 -39 -7 -79 -22
-59 -23 -74 -33 -72 -49 9 -94 10 -89 -21 -87 -38 3 -41 7 -41 55 0 23 -5 43
-12 45 -17 6 -57 -62 -77 -130 -11 -38 -30 -73 -55 -100 -21 -23 -48 -61 -60
-85 -21 -41 -40 -55 -42 -29 0 6 -9 -7 -19 -30 -11 -24 -24 -43 -30 -43 -31 0
16 200 65 273 19 28 35 56 35 60 0 5 9 21 20 37 l19 27 -52 7 c-99 11 -97 12
-97 -44 0 -36 -4 -50 -14 -50 -17 0 -26 22 -26 61 0 17 -6 32 -15 35 -8 3 -58
1 -110 -5 -83 -9 -101 -8 -131 6 -71 34 -43 40 236 53 330 14 360 18 387 43
32 31 29 38 -16 31 -23 -4 -60 0 -92 9 -105 29 -126 30 -132 6 -5 -19 -8 -20
-22 -9 -13 11 -18 10 -33 -2 -20 -18 -89 -31 -97 -18 -3 5 -12 7 -20 3 -11 -3
-15 2 -15 17 0 19 -2 20 -15 10 -8 -7 -12 -16 -9 -21 3 -5 -1 -9 -10 -9 -25 0
-46 12 -46 26 0 9 -12 13 -37 12 -33 -1 -42 5 -82 49 -26 28 -63 58 -83 66
-22 9 -49 33 -65 56 -15 22 -34 40 -40 41 -7 0 -13 6 -13 13 0 6 -14 18 -32
26 -18 8 -72 54 -120 103 -49 48 -95 88 -102 88 -14 0 -208 152 -281 219 -22
21 -52 42 -67 49 -15 6 -37 25 -49 41 -15 20 -25 27 -30 20 -4 -6 -24 -12 -45
-13 -35 -1 -39 2 -42 26 -2 19 -8 25 -18 21 -26 -10 -84 8 -117 36 -27 24 -43
29 -105 33 -40 3 -79 11 -85 17 -6 6 -26 11 -44 11 -23 0 -42 8 -58 25 -17 16
-25 19 -25 10 0 -25 -50 -30 -89 -9 -46 25 -54 54 -14 54 15 0 43 -4 61 -10
29 -8 32 -7 22 5 -7 8 -18 15 -25 15 -7 0 -21 12 -31 26 -10 14 -34 32 -52 39
-40 17 -46 32 -33 83 11 39 35 61 46 42 14 -23 25 -6 25 40 0 28 -4 50 -9 50
-5 0 -32 -16 -61 -35 -68 -46 -134 -64 -174 -49 -36 14 -15 30 38 30 55 0 80
12 164 81 l34 27 42 -22 c24 -13 59 -39 79 -59 40 -38 69 -39 64 -1 -2 20 2
22 38 19 22 -2 43 -8 47 -14 5 -8 16 -3 35 16 l28 28 -28 -10 c-40 -16 -64
-14 -85 7 -10 9 -28 23 -40 30 -20 11 -22 10 -22 -14 0 -16 -5 -24 -12 -21
-13 4 -14 39 -6 162 4 52 30 106 69 141 12 10 60 68 106 127 79 102 85 113 99
184 18 94 56 181 106 242 21 25 41 57 45 71 14 59 40 64 76 16 l26 -33 -22
-67 c-18 -55 -19 -69 -8 -75 7 -5 11 -13 8 -18 -4 -6 0 -19 8 -29 14 -18 14
-18 15 6 0 23 1 23 17 7 16 -16 16 -19 0 -46 -9 -16 -17 -48 -16 -73 0 -23 3
-37 6 -30 2 6 14 12 25 12 20 0 20 -1 3 -20 -10 -11 -21 -17 -25 -15 -4 3 -13
-9 -20 -26 -17 -40 -34 -32 -42 22 -3 24 -11 57 -18 74 -16 43 -29 14 -18 -41
5 -24 7 -79 4 -121 -3 -43 -6 -90 -7 -105 -1 -21 -7 -28 -23 -28 -26 0 -37 -8
-59 -42 -21 -34 -13 -93 12 -83 9 4 50 13 91 20 86 16 110 36 110 95 0 21 13
94 30 163 16 69 34 154 39 189 6 34 13 72 16 83 4 15 -12 49 -60 120 -36 55
-88 144 -115 197 -50 97 -70 123 -70 94 0 -25 -26 -19 -49 10 -27 34 -27 48 0
41 16 -4 19 -2 14 11 -4 9 -11 32 -15 50 -5 19 -13 46 -18 60 -33 91 -54 181
-56 250 -1 43 -6 83 -9 90 -4 6 -5 23 -1 37 5 20 12 25 36 25 16 0 39 5 51 11
17 10 23 9 32 -6 31 -53 41 -60 69 -47 35 15 68 89 64 139 -2 29 -10 41 -34
55 -28 17 -41 17 -130 7 -55 -6 -110 -16 -124 -23 -24 -12 -25 -16 -23 -89 3
-72 16 -119 45 -159 15 -21 6 -32 -21 -23 -34 11 -129 114 -157 172 -23 47
-28 72 -32 163 l-4 107 28 6 c37 7 70 -14 91 -58 10 -22 24 -35 36 -35 10 0
17 5 15 13 -3 6 -11 12 -19 12 -8 0 -14 7 -15 15 -2 27 -16 50 -30 50 -8 0
-14 4 -14 9 0 5 -13 11 -29 14 -29 6 -72 44 -118 104 -20 27 -30 56 -39 117
-6 44 -19 108 -28 141 -18 67 -21 131 -6 140 6 3 10 21 10 40 0 21 6 35 16 39
15 6 16 17 11 82 -8 89 -10 94 -43 94 -27 0 -31 12 -9 30 8 7 15 19 15 28 0 8
6 23 14 31 14 17 48 142 40 150 -3 3 -15 -8 -28 -24 -28 -34 -46 -27 -46 20 0
19 -5 37 -12 41 -8 5 -9 2 -5 -10 6 -16 -17 -35 -29 -24 -9 10 19 56 37 61 28
7 60 66 48 89 -11 21 -4 38 17 38 19 0 18 19 -3 42 -15 17 -15 18 5 18 11 0
24 -4 27 -10 3 -5 10 -10 16 -10 13 0 12 37 -2 45 -5 4 -14 18 -19 31 -7 16
-17 24 -34 24 -13 0 -29 7 -36 15 -18 22 -4 31 18 12 10 -10 24 -17 30 -17 20
0 13 27 -10 43 l-23 15 25 46 c20 38 22 48 11 55 -10 7 -5 18 24 50 36 39 36
41 14 41 -24 1 -24 1 4 16 31 17 33 26 12 44 -19 16 -10 30 20 30 18 0 22 4
18 18 -3 14 8 27 44 51 64 42 93 67 93 81 0 6 9 10 19 8 11 -2 30 7 43 19 12
11 32 23 43 25 14 2 20 11 20 29 0 14 7 34 15 44 14 17 13 18 -7 13 -28 -8
-30 3 -3 20 15 9 26 10 40 2 21 -11 26 -35 10 -45 -15 -10 -12 -22 8 -27 23
-6 42 1 42 16 0 7 9 21 21 32 15 14 24 16 37 8 12 -8 24 -5 49 10 34 22 42 36
21 36 -7 0 -3 6 8 13 12 6 33 20 47 30 24 17 28 18 42 3 21 -20 45 -21 45 -1
0 8 5 15 10 15 6 0 10 7 10 15 0 9 -9 15 -25 15 -16 0 -25 6 -25 15 0 15 12
17 90 17 27 0 30 1 10 5 -23 5 -24 6 -5 14 33 13 43 10 49 -15z m136 9 c15
-19 2 -25 -60 -28 -29 -1 -44 3 -48 12 -3 10 3 12 27 6 23 -5 32 -3 37 9 8 20
28 21 44 1z m-335 -55 c-3 -5 -14 -10 -24 -10 -9 0 -22 -5 -28 -11 -7 -7 -19
-9 -29 -5 -31 12 5 30 69 35 10 0 15 -3 12 -9z m-1165 -10 c0 -5 -4 -10 -10
-10 -5 0 -10 5 -10 10 0 6 5 10 10 10 6 0 10 -4 10 -10z m4380 2 c0 -11 -22
-32 -32 -32 -5 0 -4 9 2 20 11 20 30 28 30 12z m-3395 -51 c-16 -14 -55 -23
-55 -12 0 9 20 17 50 20 8 1 10 -2 5 -8z m-1225 -21 c0 -5 -7 -10 -16 -10 -8
0 -12 5 -9 10 3 6 10 10 16 10 5 0 9 -4 9 -10z m1320 0 c0 -5 -7 -10 -15 -10
-8 0 -15 5 -15 10 0 6 7 10 15 10 8 0 15 -4 15 -10z m-1215 -10 c-3 -5 -13
-10 -21 -10 -8 0 -12 5 -9 10 3 6 13 10 21 10 8 0 12 -4 9 -10z m2185 -40 c0
-5 -7 -10 -15 -10 -8 0 -15 5 -15 10 0 6 7 10 15 10 8 0 15 -4 15 -10z m-2280
-10 c0 -5 -4 -10 -10 -10 -5 0 -10 5 -10 10 0 6 5 10 10 10 6 0 10 -4 10 -10z
m65 0 c3 -5 -1 -10 -9 -10 -9 0 -16 5 -16 10 0 6 4 10 9 10 6 0 13 -4 16 -10z
m-10 -40 c0 -7 -6 -15 -12 -17 -8 -3 -13 4 -13 17 0 13 5 20 13 18 6 -3 12
-11 12 -18z m-367 -32 c17 -17 15 -43 -4 -59 -12 -10 -22 -10 -44 -2 -24 9
-32 8 -45 -7 -14 -15 -14 -26 -4 -84 10 -50 10 -74 1 -104 -18 -59 -16 -75 7
-62 25 13 71 13 71 0 0 -5 -3 -10 -7 -10 -13 0 -54 -66 -51 -81 2 -7 -6 -15
-17 -17 -33 -7 -65 -43 -100 -113 -31 -60 -92 -129 -115 -129 -6 0 -10 -21
-10 -47 0 -63 -14 -109 -48 -164 -17 -26 -31 -65 -34 -93 -3 -26 -15 -61 -27
-77 -12 -15 -21 -38 -21 -49 0 -29 -34 -22 -38 8 -5 31 -17 28 -71 -16 -25
-22 -59 -47 -76 -57 -59 -37 -73 -79 -31 -95 13 -5 27 -13 30 -19 12 -18 -13
-51 -39 -51 -43 0 -56 97 -23 165 6 11 40 50 75 86 63 64 64 67 42 74 -53 16
-50 26 16 61 35 19 77 34 93 34 31 0 50 17 76 68 l17 32 -33 0 c-54 0 -76 10
-89 41 -15 38 1 100 35 126 15 12 25 33 29 63 6 48 50 100 85 100 24 0 68 -48
76 -83 l7 -29 24 36 c29 42 36 81 22 116 -6 14 -13 52 -17 85 -4 33 -11 68
-15 78 -10 24 23 23 50 -3 l22 -21 7 83 c9 112 50 194 108 217 32 13 52 13 66
-1z m5050 -120 c17 -17 15 -38 -5 -38 -18 0 -53 28 -53 42 0 12 44 10 58 -4z
m86 -24 c30 -31 36 -45 42 -101 3 -35 4 -85 0 -110 -6 -44 -5 -45 17 -38 12 4
35 9 50 12 l29 6 -16 -31 c-9 -17 -16 -40 -16 -50 0 -11 -18 -42 -40 -68 -22
-27 -40 -56 -40 -66 0 -23 30 -98 39 -98 4 0 21 16 38 35 19 21 40 35 55 35
28 0 71 -28 63 -41 -4 -5 0 -9 7 -9 16 -1 47 -60 41 -77 -3 -7 -12 -13 -21
-13 -12 0 -8 -8 15 -28 28 -23 63 -84 63 -110 0 -4 -9 -18 -20 -30 -23 -24
-70 -29 -116 -12 -34 13 -38 8 -35 -41 2 -49 -12 -45 -30 8 -7 23 -9 63 -5
110 4 48 2 73 -5 73 -40 0 -119 107 -134 181 -2 15 -20 45 -39 68 -19 23 -37
56 -41 73 -4 18 -9 42 -12 52 -5 19 5 20 47 2 13 -5 18 10 29 91 26 185 27
168 -8 183 -41 17 -48 30 -17 30 16 0 38 -13 60 -36z m-4924 16 c0 -5 -4 -10
-10 -10 -5 0 -10 5 -10 10 0 6 5 10 10 10 6 0 10 -4 10 -10z m900 -114 c0 -11
-19 -15 -25 -6 -3 5 1 10 9 10 9 0 16 -2 16 -4z m3140 -175 c-11 -21 -40 -29
-40 -12 0 11 42 43 48 37 2 -3 -1 -14 -8 -25z m-1520 -60 c0 -11 -49 -21 -55
-11 -2 4 -2 10 2 14 10 9 53 7 53 -3z m-2775 -31 c-3 -5 -10 -10 -16 -10 -5 0
-9 5 -9 10 0 6 7 10 16 10 8 0 12 -4 9 -10z m2710 -11 c10 -15 -1 -23 -20 -15
-9 3 -13 10 -10 16 8 13 22 13 30 -1z m-1671 -215 c3 -9 4 -20 0 -25 -7 -12
-44 -11 -44 1 0 6 5 10 10 10 6 0 10 7 10 15 0 20 16 19 24 -1z m-96 -67 c2
-19 -1 -27 -12 -27 -9 0 -16 3 -16 8 0 4 -3 18 -7 31 -5 19 -2 22 13 19 12 -2
20 -13 22 -31z m57 2 c12 -19 -5 -23 -22 -6 -16 16 -16 17 -1 17 9 0 20 -5 23
-11z m45 1 c0 -5 -4 -10 -10 -10 -5 0 -10 5 -10 10 0 6 5 10 10 10 6 0 10 -4
10 -10z m2130 -159 c0 -4 10 -6 23 -4 15 3 32 -4 50 -21 31 -28 34 -44 12 -52
-12 -5 -13 -10 -5 -19 8 -10 7 -17 -6 -27 -9 -7 -32 -28 -50 -46 -37 -36 -54
-35 -54 3 0 13 -5 36 -12 50 -13 30 -5 43 17 25 13 -10 15 -9 15 7 0 24 -19
43 -42 43 -26 0 -22 29 5 40 29 11 47 12 47 1z m1467 -6 c24 -25 7 -30 -18 -6
-13 12 -17 21 -10 21 7 0 19 -7 28 -15z m520 -1 c-3 -3 -12 -4 -19 -1 -8 3 -5
6 6 6 11 1 17 -2 13 -5z m210 -93 c6 -10 28 -22 47 -25 20 -4 55 -24 79 -44
25 -20 53 -42 63 -49 17 -10 15 -12 -18 -12 -54 -1 -50 -25 18 -91 78 -77 104
-124 102 -186 -1 -27 -6 -55 -11 -61 -19 -26 -77 -9 -77 21 0 6 14 19 30 28
53 30 35 74 -55 134 -30 20 -55 39 -55 42 0 4 -15 25 -34 47 l-33 39 -17 -32
c-9 -18 -20 -32 -25 -32 -16 0 -35 87 -36 163 0 42 2 77 5 77 3 0 10 -8 17
-19z m-2249 -108 c-2 -20 -9 -29 -25 -31 -21 -3 -22 -1 -12 27 14 40 42 42 37
4z m1672 17 c0 -5 -9 -10 -20 -10 -11 0 -20 -4 -20 -10 0 -5 -9 -10 -20 -10
-27 0 -25 13 3 26 29 15 57 17 57 4z m-3720 -30 c0 -5 -4 -10 -10 -10 -5 0
-10 5 -10 10 0 6 5 10 10 10 6 0 10 -4 10 -10z m2144 -5 c-6 -16 -24 -21 -24
-7 0 11 11 22 21 22 5 0 6 -7 3 -15z m-2204 -139 c0 -11 -19 -15 -25 -6 -3 5
1 10 9 10 9 0 16 -2 16 -4z m3794 -12 c4 -10 1 -14 -6 -12 -15 5 -23 28 -10
28 5 0 13 -7 16 -16z m521 -14 c3 -5 -1 -10 -9 -10 -8 0 -18 5 -21 10 -3 6 1
10 9 10 8 0 18 -4 21 -10z m-483 -57 c10 -9 18 -21 18 -27 0 -6 13 -38 29 -71
25 -50 27 -62 16 -74 -23 -24 -42 -6 -49 48 -4 29 -4 56 -1 61 3 6 -1 10 -10
10 -11 0 -15 5 -11 15 3 9 -3 19 -14 25 -22 12 -27 30 -8 30 6 0 20 -7 30 -17z
m143 -263 c3 -5 1 -10 -4 -10 -15 0 -14 -33 1 -48 8 -8 8 -15 -2 -27 -17 -21
-25 -19 -38 10 -13 29 -16 68 -5 78 10 10 41 8 48 -3z m-2190 -120 c3 -5 2
-10 -4 -10 -5 0 -13 5 -16 10 -3 6 -2 10 4 10 5 0 13 -4 16 -10z m2205 -13 c0
-13 5 -28 12 -35 9 -9 9 -15 0 -24 -10 -10 -15 -10 -22 2 -13 20 -13 80 0 80
6 0 10 -10 10 -23z m85 2 c10 -16 -4 -59 -19 -59 -26 0 -37 25 -20 48 17 24
29 28 39 11z m-2115 -131 c0 -16 -25 -8 -72 25 -66 44 -60 52 12 15 33 -17 60
-35 60 -40z m2540 -38 c0 -5 -4 -10 -10 -10 -5 0 -10 5 -10 10 0 6 5 10 10 10
6 0 10 -4 10 -10z m-6210 -110 c-20 -13 -33 -13 -25 0 3 6 14 10 23 10 15 0
15 -2 2 -10z m3658 -172 c16 -16 15 -58 -2 -58 -7 0 -27 -3 -45 -6 -39 -8 -51
15 -27 51 18 27 54 33 74 13z m-3839 -66 c12 -23 -4 -42 -36 -42 -37 0 -39
-39 -5 -106 16 -33 33 -75 37 -94 14 -73 13 -72 45 -48 30 22 54 18 32 -4 -7
-7 -12 -27 -12 -45 0 -18 -9 -55 -20 -83 -13 -34 -20 -75 -20 -123 -1 -53 -7
-87 -24 -127 -24 -54 -24 -55 -5 -92 15 -29 19 -59 19 -138 0 -55 4 -109 10
-120 6 -11 14 -28 19 -39 9 -18 1 -76 -14 -100 -5 -9 -13 -8 -31 3 -29 20 -34
20 -34 2 0 -8 -19 -51 -41 -95 -48 -93 -47 -123 2 -140 38 -13 37 -46 -1 -46
-20 0 -28 9 -42 45 -24 62 -22 113 7 195 14 39 25 73 25 78 0 4 -13 7 -30 7
-16 0 -30 2 -30 4 0 13 64 98 81 106 27 15 49 63 49 109 l0 40 -36 -21 c-31
-18 -38 -19 -60 -8 -35 19 -51 79 -36 135 8 32 9 52 1 74 -14 41 -3 98 21 111
30 16 50 12 80 -19 16 -16 32 -26 35 -23 3 3 5 28 5 57 0 39 -6 59 -26 86 -14
19 -39 60 -56 93 l-30 58 32 -4 c31 -5 32 -4 27 26 -3 17 -12 49 -21 71 -18
46 -21 141 -6 182 19 51 70 71 89 35z m4002 -208 c11 -14 10 -19 -10 -35 -30
-24 -51 -24 -51 0 0 49 33 68 61 35z m2901 -66 c28 -31 30 -37 26 -93 -3 -35
-18 -90 -37 -134 -17 -40 -31 -77 -31 -83 0 -5 18 -6 45 -2 25 3 45 3 45 -1 0
-4 -36 -43 -81 -85 -80 -78 -99 -112 -99 -172 0 -33 8 -34 55 -8 64 36 100 22
123 -48 9 -27 8 -38 -8 -65 -34 -55 -34 -59 -11 -76 17 -13 19 -19 9 -29 -9
-9 -8 -15 8 -26 18 -14 18 -15 1 -21 -9 -4 -16 -15 -15 -24 2 -11 -4 -16 -19
-16 -11 0 -25 -3 -29 -7 -11 -12 -56 2 -81 24 -28 26 -43 16 -43 -27 0 -36
-16 -56 -26 -31 -9 23 24 138 47 162 19 21 19 21 -7 79 -25 54 -26 65 -21 154
5 78 3 99 -10 113 -29 32 -9 158 20 129 20 -20 28 -12 58 55 16 36 43 84 59
106 45 62 36 125 -17 112 -23 -6 -38 9 -29 31 9 24 36 17 68 -17z m-896 -67
c-7 -11 -46 -21 -46 -12 0 13 13 21 32 21 11 0 17 -4 14 -9z m504 -117 c0 -8
-4 -14 -10 -14 -5 0 -10 9 -10 21 0 11 5 17 10 14 6 -3 10 -13 10 -21z m-4680
-64 c0 -5 -7 -10 -15 -10 -8 0 -15 5 -15 10 0 6 7 10 15 10 8 0 15 -4 15 -10z
m4688 -128 c6 -18 -15 -14 -22 4 -4 10 -1 14 6 12 6 -2 14 -10 16 -16z m-3918
-252 c0 -5 -4 -10 -9 -10 -6 0 -13 5 -16 10 -3 6 1 10 9 10 9 0 16 -4 16 -10z
m-70 -285 c-14 -16 -50 -21 -50 -6 0 11 18 19 44 20 15 1 16 -2 6 -14z m4240
-135 c5 0 10 5 12 12 7 20 35 1 46 -32 10 -26 9 -32 -5 -37 -9 -4 -19 -1 -21
5 -9 27 -22 10 -17 -22 6 -32 5 -34 -27 -38 -18 -3 -41 -8 -50 -13 -15 -6 -18
-2 -18 28 0 46 13 80 42 109 20 20 23 21 26 5 2 -9 7 -17 12 -17z m-4216 4 c8
-21 -20 -54 -45 -54 -20 0 -36 41 -24 59 10 17 62 13 69 -5z m1093 -61 c5 -15
-36 -28 -49 -15 -6 6 -7 15 -3 22 9 14 47 9 52 -7z m3153 -83 c0 -5 -4 -10
-10 -10 -5 0 -10 5 -10 10 0 6 5 10 10 10 6 0 10 -4 10 -10z m33 -57 c39 -38
61 -92 55 -133 -4 -32 -28 -39 -28 -7 0 13 -8 35 -19 48 -35 46 -69 129 -52
129 4 0 24 -17 44 -37z m-3205 -4 c3 -17 -43 -43 -59 -34 -13 8 -11 29 3 43
17 17 52 11 56 -9z m-114 -105 c9 -22 -11 -44 -41 -44 -28 0 -40 24 -23 45 17
20 56 19 64 -1z m3346 -102 c0 -18 -49 -54 -67 -49 -14 4 -12 5 7 7 l25 2 -24
7 c-40 11 -36 29 6 34 21 2 41 4 46 5 4 1 7 -2 7 -6z m-1520 -222 c0 -5 -4
-10 -10 -10 -5 0 -10 5 -10 10 0 6 5 10 10 10 6 0 10 -4 10 -10z m-3516 -23
c28 -21 10 -47 -33 -47 -47 0 -87 26 -70 46 14 17 79 18 103 1z m-123 -78 c43
-22 -25 -52 -75 -33 -19 7 -21 30 -3 37 21 9 58 7 78 -4z m224 -40 c39 -28 72
-52 73 -54 19 -18 -116 -145 -153 -145 -21 0 -75 28 -102 53 -56 51 -47 144
18 179 56 30 87 24 164 -33z m4443 -14 c-2 -21 -8 -40 -15 -42 -18 -6 -26 38
-13 72 15 38 32 20 28 -30z m-4730 -17 c19 -19 15 -48 -8 -48 -13 0 -27 -14
-40 -39 -11 -22 -32 -46 -47 -53 -16 -7 -32 -23 -38 -36 -12 -27 -35 -29 -35
-3 0 11 -4 23 -10 26 -5 3 -10 -1 -10 -9 0 -9 -4 -16 -10 -16 -5 0 -9 -3 -8
-7 1 -5 -4 -21 -10 -36 -7 -16 -12 -32 -12 -37 0 -16 69 28 141 90 38 33 75
60 81 60 22 0 78 -65 78 -91 0 -14 5 -40 11 -57 9 -26 5 -46 -25 -135 -19 -58
-55 -146 -80 -196 -27 -52 -46 -104 -46 -123 0 -31 -40 -162 -54 -175 -3 -4
-6 -16 -6 -28 0 -12 -9 -34 -20 -48 -11 -14 -20 -30 -20 -36 0 -7 -22 -11 -55
-11 -54 0 -55 1 -55 29 0 22 -6 30 -25 35 -31 8 -31 16 -1 139 22 92 20 110
-8 56 -17 -35 -40 -45 -70 -31 -25 11 -26 14 -26 109 l0 97 -43 -42 c-23 -23
-48 -42 -54 -42 -12 0 -23 57 -16 77 5 13 103 77 103 68 0 -3 9 -1 20 5 11 6
20 19 20 29 0 11 6 21 13 24 6 3 20 19 30 36 l19 32 -59 -29 c-32 -16 -68 -33
-80 -36 -21 -7 -23 -4 -23 32 0 28 -6 44 -25 60 -15 13 -22 28 -19 37 5 11 2
14 -10 9 -13 -5 -16 2 -16 46 0 65 7 78 73 128 69 54 148 80 271 92 98 10 126
20 126 46 0 18 61 19 78 2z m767 -38 c-3 -5 -13 -10 -21 -10 -8 0 -12 5 -9 10
3 6 13 10 21 10 8 0 12 -4 9 -10z m-2085 -58 c12 -46 13 -62 1 -62 -13 0 -45
86 -36 99 10 18 23 4 35 -37z m2025 17 c14 -14 -12 -29 -52 -29 -40 0 -52 -17
-24 -36 12 -8 21 -19 21 -25 0 -5 20 -43 45 -84 25 -41 48 -82 52 -92 8 -22
44 -75 58 -85 16 -12 -5 -23 -23 -12 -16 10 -106 127 -158 207 -14 21 -29 57
-32 80 l-8 42 -56 0 c-57 0 -91 16 -72 34 20 21 228 21 249 0z m-261 -73 c20
-10 23 -16 14 -23 -39 -31 -128 -27 -128 7 0 10 6 21 13 23 24 10 75 7 101 -7z
m4226 -24 c0 -10 -6 -26 -13 -37 -18 -23 -30 -6 -21 30 7 29 34 34 34 7z
m-4306 -57 c8 -9 13 -22 10 -29 -7 -18 -49 -36 -83 -36 l-29 0 -6 -107 c-4
-60 -9 -153 -11 -208 -2 -55 -13 -152 -24 -215 -28 -151 -61 -403 -61 -460 0
-28 -7 -54 -19 -69 -25 -32 -51 -22 -51 20 0 35 -23 36 -28 1 -4 -23 -26 -30
-37 -11 -5 7 -14 4 -26 -7 -17 -15 -23 -13 -21 7 1 3 8 75 17 160 46 449 109
737 190 875 43 73 141 116 179 79z m-1646 -17 c11 -15 43 -120 37 -126 -6 -6
-52 81 -59 111 -7 28 4 36 22 15z m-192 -90 c4 -6 -3 -19 -15 -29 -37 -30 -25
-66 39 -115 30 -23 66 -61 80 -83 14 -23 27 -41 30 -41 3 0 13 15 24 33 l19
32 18 -50 c9 -27 18 -70 18 -94 1 -27 14 -73 36 -121 25 -56 35 -92 35 -128 0
-46 3 -53 33 -76 36 -27 94 -123 82 -134 -4 -4 -16 6 -27 21 l-21 28 -31 -30
c-29 -29 -34 -30 -70 -20 -40 11 -66 52 -66 105 0 16 -13 41 -35 65 -20 22
-35 50 -35 63 0 49 54 72 96 41 27 -20 34 -19 34 8 0 39 -43 101 -82 120 -21
10 -59 38 -85 62 -42 39 -45 44 -25 45 33 0 27 18 -28 76 -52 55 -100 142
-100 181 0 41 57 72 76 41z m6065 -61 c-18 -18 -25 1 -11 30 l14 28 4 -24 c2
-13 -1 -28 -7 -34z m-5101 19 c0 -11 -19 -15 -25 -6 -3 5 1 10 9 10 9 0 16 -2
16 -4z m-710 -50 c0 -2 7 -20 15 -40 13 -31 13 -36 1 -36 -8 0 -19 14 -25 31
-14 39 -14 49 -1 49 6 0 10 -2 10 -4z m5734 -72 c10 -25 7 -82 -4 -89 -6 -4
-10 10 -10 34 0 21 -3 46 -6 55 -3 9 -2 16 4 16 5 0 13 -7 16 -16z m-5655
-136 c6 -17 8 -34 5 -37 -8 -9 -34 30 -34 51 0 29 17 21 29 -14z m5986 -48 c3
-5 1 -10 -4 -10 -6 0 -11 5 -11 10 0 6 2 10 4 10 3 0 8 -4 11 -10z m-5495 -26
c0 -8 -4 -12 -10 -9 -5 3 -10 10 -10 16 0 5 5 9 10 9 6 0 10 -7 10 -16z m34
-70 c9 -20 14 -39 11 -42 -7 -8 -12 -1 -30 41 -20 48 -4 48 19 1z m5056 12 c0
-16 -18 -31 -27 -22 -8 8 5 36 17 36 5 0 10 -6 10 -14z m-5495 -66 c3 -5 1
-10 -4 -10 -6 0 -11 5 -11 10 0 6 2 10 4 10 3 0 8 -4 11 -10z m5881 -5 c-26
-19 -42 -19 -26 0 7 8 20 15 29 15 13 -1 13 -3 -3 -15z m-2016 -36 c0 -5 -7
-9 -15 -9 -15 0 -20 12 -9 23 8 8 24 -1 24 -14z m-3355 -59 c3 -5 1 -10 -4
-10 -6 0 -11 5 -11 10 0 6 2 10 4 10 3 0 8 -4 11 -10z m5265 -50 c0 -23 -50
-60 -80 -60 -45 0 -38 27 13 50 48 22 67 25 67 10z m-5226 -25 c3 -8 1 -15 -3
-15 -5 0 -11 7 -15 15 -3 8 -1 15 3 15 5 0 11 -7 15 -15z m2447 -24 c7 -18 6
-22 -9 -19 -9 2 -19 14 -20 27 -5 30 18 24 29 -8z m2299 -101 c0 -5 -5 -10
-11 -10 -5 0 -7 5 -4 10 3 6 8 10 11 10 2 0 4 -4 4 -10z m-1320 -56 c0 -27 -4
-43 -10 -39 -5 3 -10 24 -10 46 0 21 5 39 10 39 6 0 10 -21 10 -46z m-3949
-21 c39 -43 66 -90 56 -100 -4 -3 -2 -12 4 -20 9 -10 7 -13 -9 -13 -22 0 -38
-32 -27 -51 9 -14 -4 -159 -15 -159 -14 0 -31 62 -37 133 -6 72 -6 72 -57 51
-18 -7 -19 -4 -13 43 3 28 15 66 26 84 12 19 21 42 21 52 0 26 12 21 51 -20z
m3023 1 c15 -39 -4 -42 -24 -3 -8 15 -7 19 4 19 7 0 17 -7 20 -16z m996 -4 c0
-6 -7 -13 -15 -16 -20 -8 -48 3 -40 16 8 13 55 13 55 0z m1638 -7 c-5 -7 -7
-17 -3 -23 9 -14 -28 -13 -58 3 -35 18 -18 35 33 33 29 0 36 -4 28 -13z m-108
-23 c0 -5 -4 -10 -9 -10 -6 0 -13 5 -16 10 -3 6 1 10 9 10 9 0 16 -4 16 -10z
m-1830 -55 c0 -6 -62 -45 -72 -45 -20 0 -4 23 25 35 35 15 47 18 47 10z m1875
-26 c-7 -10 -35 -1 -35 11 0 5 9 6 20 3 11 -3 17 -9 15 -14z m-12 -36 c10 -10
-13 -33 -34 -33 -24 0 -35 20 -18 31 17 10 43 12 52 2z m237 -7 c0 -18 -16
-29 -30 -21 -13 8 -1 35 16 35 8 0 14 -6 14 -14z m-2385 -18 c60 -15 89 -36
74 -54 -15 -19 -29 -18 -53 5 -62 55 -237 57 -315 3 -21 -15 3 -48 41 -56 l33
-7 -24 -20 c-14 -11 -35 -19 -50 -17 -23 3 -26 7 -23 36 2 27 -2 35 -18 39
-30 8 -28 53 3 54 12 0 42 9 67 19 37 15 62 18 135 13 50 -2 108 -9 130 -15z
m1650 -18 c-3 -5 -11 -10 -16 -10 -6 0 -7 5 -4 10 3 6 11 10 16 10 6 0 7 -4 4
-10z m-1750 -49 c7 -13 -27 -31 -58 -31 -25 0 -52 22 -40 33 10 11 91 8 98 -2z
m111 -32 c13 -21 -22 -42 -60 -35 -37 7 -51 19 -41 36 8 14 92 13 101 -1z m80
-71 c12 -19 -28 -39 -71 -36 -28 2 -41 8 -43 20 -2 12 5 18 30 21 64 8 77 7
84 -5z m2164 -14 c0 -16 -23 -44 -35 -44 -12 0 -12 5 -3 25 10 21 38 36 38 19z
m-5570 -18 c0 -2 -7 -6 -15 -10 -8 -3 -15 -1 -15 4 0 6 7 10 15 10 8 0 15 -2
15 -4z m15 -36 c-3 -5 -15 -10 -25 -10 -10 0 -22 5 -25 10 -4 6 7 10 25 10 18
0 29 -4 25 -10z m3314 -11 c37 -13 36 -33 -1 -37 -27 -3 -62 23 -53 39 8 12
15 11 54 -2z m-13 -73 c17 -13 18 -15 2 -21 -26 -10 -52 -2 -56 18 -4 21 26
23 54 3z m-70 -41 c16 -13 17 -16 4 -25 -8 -6 -23 -8 -32 -6 -13 3 -18 -2 -18
-15 0 -23 -18 -24 -48 -3 -25 17 -21 34 8 34 10 0 20 7 24 15 7 19 37 19 62 0z
m-2636 -5 c0 -5 -4 -10 -10 -10 -5 0 -10 5 -10 10 0 6 5 10 10 10 6 0 10 -4
10 -10z m85 -76 c-19 -19 -27 -17 -21 4 5 13 -1 22 -19 30 -14 6 -25 16 -25
21 0 5 18 -2 39 -16 34 -22 38 -28 26 -39z m-345 -114 c0 -11 -7 -20 -15 -20
-17 0 -18 2 -9 24 9 23 24 20 24 -4z m615 0 c-3 -5 -11 -10 -16 -10 -6 0 -7 5
-4 10 3 6 11 10 16 10 6 0 7 -4 4 -10z m3380 -40 c-16 -17 -33 -30 -39 -30 -5
0 5 16 24 35 18 19 36 32 39 30 2 -3 -8 -19 -24 -35z m-3465 20 c8 -5 11 -12
7 -16 -3 -4 -13 -2 -21 5 -11 9 -15 9 -18 0 -3 -8 -9 -9 -18 -4 -11 7 -10 10
6 16 26 10 27 10 44 -1z m4383 -64 c-2 -32 -13 -47 -20 -28 -4 10 -8 10 -19 1
-11 -9 -14 -8 -14 5 0 29 20 57 38 54 12 -3 16 -13 15 -32z m20 -53 c-8 -23
-52 -84 -71 -100 -32 -26 -33 -12 -3 22 17 19 38 49 46 65 17 32 38 42 28 13z
m-203 -133 c16 -30 -1 -52 -44 -55 -43 -2 -45 9 -9 47 32 33 39 34 53 8z
m-3169 -31 c19 -7 38 -16 44 -21 12 -11 -51 1 -90 18 -25 10 -26 13 -9 13 12
1 36 -4 55 -10z m3025 -46 c4 -16 15 -36 25 -46 11 -10 19 -22 19 -27 0 -5 5
-43 11 -84 9 -69 8 -83 -11 -140 -16 -46 -34 -76 -66 -107 -40 -39 -43 -46
-38 -80 6 -37 4 -41 -57 -99 -119 -112 -259 -151 -432 -121 -66 11 -164 47
-155 56 3 3 40 -4 83 -15 92 -23 155 -25 246 -6 108 23 200 78 240 143 12 19
19 36 17 38 -2 2 -40 -7 -83 -21 -59 -19 -93 -24 -128 -20 -79 9 -81 21 -4 22
127 2 253 68 240 127 -6 32 -21 34 -96 13 -115 -32 -330 -27 -395 8 -15 8 -65
31 -111 52 -93 40 -101 38 -101 -28 0 -36 32 -86 94 -148 31 -31 33 -50 7 -50
-23 0 -64 48 -57 67 3 7 0 13 -6 13 -6 0 -47 18 -90 41 -44 22 -85 38 -91 36
-20 -7 -47 12 -47 33 0 11 5 20 11 20 8 0 10 12 6 35 -6 35 -5 36 49 60 50 22
54 26 54 58 0 18 6 42 14 52 12 16 18 18 37 8 27 -13 70 -24 112 -27 17 -2 45
-19 71 -45 l44 -43 88 19 c86 18 89 19 89 46 -1 22 4 27 22 27 17 0 23 6 23
21 0 33 19 60 55 75 38 15 60 11 70 -14 5 -15 8 -14 23 6 15 19 30 24 90 29
51 4 76 11 88 24 23 26 32 24 40 -8z m-4086 -77 c0 -3 -4 -8 -10 -11 -5 -3
-10 -1 -10 4 0 6 5 11 10 11 6 0 10 -2 10 -4z m540 -56 c0 -5 -4 -10 -9 -10
-6 0 -13 5 -16 10 -3 6 1 10 9 10 9 0 16 -4 16 -10z m50 -25 c11 -13 8 -15
-14 -15 -25 0 -33 10 -19 23 10 11 19 8 33 -8z m215 -45 c8 -13 -5 -13 -25 0
-13 8 -13 10 2 10 9 0 20 -4 23 -10z m2254 -39 c12 -21 5 -31 -19 -31 -22 0
-44 25 -35 40 10 17 43 11 54 -9z m-199 -35 c0 -16 -18 -31 -27 -22 -8 8 5 36
17 36 5 0 10 -6 10 -14z m60 -67 c0 -14 -7 -19 -25 -19 -33 0 -45 28 -20 46
22 16 45 2 45 -27z m-160 16 c0 -11 8 -13 31 -8 26 5 34 1 57 -27 26 -30 30
-32 75 -25 35 5 45 11 38 18 -17 17 -13 27 13 27 31 0 74 -22 69 -37 -2 -6 10
-21 27 -33 22 -16 29 -27 25 -41 -5 -16 8 -56 24 -69 3 -3 21 -22 39 -43 37
-44 42 -63 11 -47 -11 6 -54 12 -95 12 -62 1 -77 4 -85 19 -5 11 -18 19 -28
19 -10 0 -24 7 -31 15 -10 12 -16 13 -24 4 -8 -8 -8 -13 2 -16 6 -3 12 -9 12
-15 0 -7 -5 -6 -14 1 -10 9 -16 8 -26 -4 -7 -8 -21 -15 -31 -15 -11 0 -19 -6
-19 -14 0 -8 -3 -22 -6 -31 -5 -11 0 -18 15 -22 27 -7 27 -23 0 -23 -11 0 -29
-5 -40 -11 -24 -12 -59 -3 -59 16 0 8 9 17 20 20 11 4 20 15 20 27 0 20 -1 20
-18 -2 -18 -22 -19 -22 -45 -5 -15 9 -27 23 -27 31 0 18 21 29 30 14 5 -9 9
-8 13 3 8 22 -6 70 -23 75 -9 3 -11 -1 -7 -12 4 -10 1 -16 -7 -16 -19 0 -43
-30 -25 -31 10 0 11 -2 2 -6 -7 -2 -13 -13 -13 -24 0 -25 -27 -25 -35 1 -9 27
-25 25 -25 -3 0 -23 -25 -66 -33 -57 -2 3 -7 31 -11 63 -7 68 10 86 47 47 l21
-23 7 27 c11 38 28 56 55 56 26 0 40 17 36 43 -2 9 2 17 7 17 6 0 11 -5 11
-12 0 -14 29 -48 41 -48 5 0 3 11 -3 25 -14 31 -4 43 23 27 16 -10 20 -10 25
3 10 26 -4 46 -46 63 -30 13 -40 23 -40 40 0 12 5 22 10 22 6 0 10 -7 10 -15z
m-2140 -5 c0 -5 -7 -10 -15 -10 -8 0 -15 5 -15 10 0 6 7 10 15 10 8 0 15 -4
15 -10z m951 -30 c10 -6 19 -17 19 -25 0 -20 -48 -31 -71 -16 -10 6 -30 11
-43 11 -35 0 -78 18 -71 30 8 13 141 13 166 0z m1018 -38 c9 -22 9 -35 0 -56
-17 -36 -33 -28 -37 18 -6 67 16 89 37 38z m-81 6 c23 -23 12 -108 -14 -108
-20 0 -39 39 -25 53 6 6 11 24 11 39 0 30 9 35 28 16z m236 -13 c3 -8 2 -15
-3 -15 -5 0 -14 7 -21 15 -10 12 -10 15 3 15 8 0 17 -7 21 -15z m-34 -45 c0
-5 -4 -10 -10 -10 -5 0 -10 5 -10 10 0 6 5 10 10 10 6 0 10 -4 10 -10z m-274
-55 c4 -8 17 -15 30 -15 16 0 24 -6 24 -17 0 -9 12 -29 27 -45 l26 -27 -28
-73 c-15 -40 -39 -104 -54 -143 -16 -43 -32 -70 -41 -70 -21 0 -15 40 11 76
19 27 19 31 5 51 -9 12 -16 41 -16 63 0 22 -4 46 -9 54 -6 9 -5 21 2 33 9 14
9 23 -1 39 -10 15 -11 24 -3 32 16 16 13 37 -4 37 -8 0 -15 5 -15 10 0 16 40
12 46 -5z m-1366 -90 c0 -8 6 -15 13 -15 8 0 22 -9 32 -20 15 -16 15 -22 5
-35 -16 -19 -50 -20 -50 -1 0 8 8 17 17 20 15 6 15 8 3 16 -9 5 -19 5 -27 -2
-9 -7 -14 -6 -19 6 -7 19 2 46 16 46 5 0 10 -7 10 -15z m1835 -14 c7 -12 -12
-24 -25 -16 -11 7 -4 25 10 25 5 0 11 -4 15 -9z m65 -15 c0 -9 7 -12 20 -9 12
3 20 0 20 -7 0 -6 -10 -10 -22 -9 -13 2 -29 0 -36 -5 -19 -12 -25 -1 -12 23
12 24 30 28 30 7z m110 -16 c0 -21 -15 -27 -25 -10 -7 12 2 30 16 30 5 0 9 -9
9 -20z m70 -11 c0 -6 -4 -7 -10 -4 -5 3 -10 11 -10 16 0 6 5 7 10 4 6 -3 10
-11 10 -16z m-227 -29 c6 -23 -3 -26 -21 -8 -16 16 -15 28 2 28 7 0 16 -9 19
-20z m-196 -16 c-9 -9 -28 6 -21 18 4 6 10 6 17 -1 6 -6 8 -13 4 -17z m-1757
-70 c6 -14 24 -47 42 -74 24 -37 35 -46 45 -39 9 8 17 3 31 -20 14 -23 21 -28
30 -19 7 7 12 18 12 26 0 8 6 12 15 8 8 -3 31 2 51 10 20 8 38 13 41 10 10
-10 -7 -36 -29 -46 -13 -5 -32 -16 -42 -24 -18 -15 -18 -16 13 -45 34 -31 41
-61 15 -61 -32 0 -123 62 -175 118 -51 55 -115 175 -103 193 9 14 44 -10 54
-37z m738 26 c26 -16 32 -26 32 -55 0 -43 -21 -55 -59 -34 -16 9 -28 27 -33
49 -13 63 3 74 60 40z m-498 3 c0 -5 -4 -15 -10 -23 -11 -18 -25 -7 -17 15 6
15 27 21 27 8z m50 -63 c0 -5 -7 -10 -16 -10 -8 0 -12 5 -9 10 3 6 10 10 16
10 5 0 9 -4 9 -10z m2320 -70 c0 -5 -7 -10 -16 -10 -8 0 -12 5 -9 10 3 6 10
10 16 10 5 0 9 -4 9 -10z m-527 -54 c6 -14 0 -26 -14 -26 -3 0 -9 9 -12 20 -6
23 18 28 26 6z m-1793 0 c0 -3 -4 -8 -10 -11 -5 -3 -10 -1 -10 4 0 6 5 11 10
11 6 0 10 -2 10 -4z m1915 -36 c-3 -5 -16 -10 -28 -10 -18 0 -19 2 -7 10 20
13 43 13 35 0z m-55 -15 c0 -8 -4 -15 -9 -15 -13 0 -22 16 -14 24 11 11 23 6
23 -9z m-91 -29 c10 -12 7 -18 -18 -30 -39 -21 -81 -21 -81 -1 0 8 6 15 14 15
8 0 16 7 20 15 7 19 50 19 65 1z m-794 -96 c3 -5 -1 -10 -9 -10 -9 0 -16 5
-16 10 0 6 4 10 9 10 6 0 13 -4 16 -10z m-5 -30 c0 -13 -28 -25 -38 -16 -3 4
0 11 8 16 20 13 30 12 30 0z"/>
<path d="M3186 8407 c-14 -10 -16 -16 -7 -22 15 -9 35 8 30 24 -3 8 -10 7 -23
-2z"/>
<path d="M2488 4353 c-9 -10 -21 -30 -27 -44 -9 -26 -8 -27 30 -33 40 -6 85 0
105 15 6 5 9 22 6 38 -3 22 -9 29 -25 28 -12 0 -33 3 -47 7 -19 5 -30 2 -42
-11z"/>
<path d="M593 4455 c0 -44 2 -61 4 -37 2 23 2 59 0 80 -2 20 -4 1 -4 -43z"/>
<path d="M600 4304 c0 -38 5 -76 10 -84 7 -10 8 10 4 65 -8 101 -14 109 -14
19z"/>
<path d="M622 4170 c0 -19 2 -27 5 -17 2 9 2 25 0 35 -3 9 -5 1 -5 -18z"/>
<path d="M632 4105 c0 -16 2 -22 5 -12 2 9 2 23 0 30 -3 6 -5 -1 -5 -18z"/>
</g>
</svg>
